<?xml version="1.0" encoding="UTF-8"?>
<!DOCTYPE svg PUBLIC "-//W3C//DTD SVG 1.1//EN" "http://www.w3.org/Graphics/SVG/1.1/DTD/svg11.dtd">
<svg xmlns="http://www.w3.org/2000/svg" version="1.1" width="1302px" height="1178px" style="shape-rendering:geometricPrecision; text-rendering:geometricPrecision; image-rendering:optimizeQuality; fill-rule:evenodd; clip-rule:evenodd" xmlns:xlink="http://www.w3.org/1999/xlink">
<g><path style="opacity:0.004" fill="#000000" d="M 43.5,-0.5 C 51.8333,-0.5 60.1667,-0.5 68.5,-0.5C 68.5,0.5 68.5,1.5 68.5,2.5C 65.8333,2.5 63.1667,2.5 60.5,2.5C 58.8333,2.5 57.1667,2.5 55.5,2.5C 55.5,3.5 55.5,4.5 55.5,5.5C 54.5,5.5 53.5,5.5 52.5,5.5C 50.5168,5.15684 49.1834,5.82351 48.5,7.5C 48.1667,7.5 47.8333,7.5 47.5,7.5C 45.5168,7.15684 44.1834,7.82351 43.5,9.5C 41.8212,9.28519 40.8212,9.95186 40.5,11.5C 27.8333,18.1667 18.1667,27.8333 11.5,40.5C 9.95186,40.8212 9.28519,41.8212 9.5,43.5C 7.82351,44.1834 7.15684,45.5168 7.5,47.5C 7.5,47.8333 7.5,48.1667 7.5,48.5C 5.82351,49.1834 5.15684,50.5168 5.5,52.5C 5.5,53.5 5.5,54.5 5.5,55.5C 4.5,55.5 3.5,55.5 2.5,55.5C 2.5,57.1667 2.5,58.8333 2.5,60.5C 2.5,63.1667 2.5,65.8333 2.5,68.5C 1.5,68.5 0.5,68.5 -0.5,68.5C -0.5,60.1667 -0.5,51.8333 -0.5,43.5C 0.5,43.5 1.5,43.5 2.5,43.5C 2.5,41.1667 2.5,38.8333 2.5,36.5C 3.5,36.5 4.5,36.5 5.5,36.5C 5.21478,34.712 5.54811,33.0453 6.5,31.5C 13.1629,23.1578 20.4963,15.4912 28.5,8.5C 30.7961,6.44772 33.4628,5.44772 36.5,5.5C 36.5,4.5 36.5,3.5 36.5,2.5C 38.8333,2.5 41.1667,2.5 43.5,2.5C 43.5,1.5 43.5,0.5 43.5,-0.5 Z"/></g>
<g><path style="opacity:0.004" fill="#fefffe" d="M 68.5,-0.5 C 71.5,-0.5 74.5,-0.5 77.5,-0.5C 77.5,0.5 77.5,1.5 77.5,2.5C 74.5,2.5 71.5,2.5 68.5,2.5C 68.5,1.5 68.5,0.5 68.5,-0.5 Z"/></g>
<g><path style="opacity:0.008" fill="#808080" d="M 77.5,-0.5 C 459.5,-0.5 841.5,-0.5 1223.5,-0.5C 1223.5,0.5 1223.5,1.5 1223.5,2.5C 1226.5,2.5 1229.5,2.5 1232.5,2.5C 1235.17,2.5 1237.83,2.5 1240.5,2.5C 1240.5,3.5 1240.5,4.5 1240.5,5.5C 1242.17,5.5 1243.83,5.5 1245.5,5.5C 1246.5,5.5 1247.5,5.5 1248.5,5.5C 1249.18,7.17649 1250.52,7.84316 1252.5,7.5C 1252.83,7.5 1253.17,7.5 1253.5,7.5C 1254.18,9.17649 1255.52,9.84316 1257.5,9.5C 1259.18,9.28519 1260.18,9.95186 1260.5,11.5C 1264.33,15.4413 1268.66,18.9413 1273.5,22C 1279.09,28.0835 1284.43,34.2502 1289.5,40.5C 1291.05,40.8212 1291.71,41.8212 1291.5,43.5C 1291.16,45.4832 1291.82,46.8166 1293.5,47.5C 1293.5,47.8333 1293.5,48.1667 1293.5,48.5C 1293.16,50.4832 1293.82,51.8166 1295.5,52.5C 1295.5,53.5 1295.5,54.5 1295.5,55.5C 1295.5,57.1667 1295.5,58.8333 1295.5,60.5C 1296.5,60.5 1297.5,60.5 1298.5,60.5C 1298.5,63.1667 1298.5,65.8333 1298.5,68.5C 1298.5,71.5 1298.5,74.5 1298.5,77.5C 1299.5,77.5 1300.5,77.5 1301.5,77.5C 1301.5,421.5 1301.5,765.5 1301.5,1109.5C 1300.5,1109.5 1299.5,1109.5 1298.5,1109.5C 1298.5,1112.5 1298.5,1115.5 1298.5,1118.5C 1298.5,1121.17 1298.5,1123.83 1298.5,1126.5C 1297.5,1126.5 1296.5,1126.5 1295.5,1126.5C 1295.5,1128.17 1295.5,1129.83 1295.5,1131.5C 1295.5,1132.5 1295.5,1133.5 1295.5,1134.5C 1293.82,1135.18 1293.16,1136.52 1293.5,1138.5C 1293.5,1138.83 1293.5,1139.17 1293.5,1139.5C 1291.82,1140.18 1291.16,1141.52 1291.5,1143.5C 1291.71,1145.18 1291.05,1146.18 1289.5,1146.5C 1285.56,1150.33 1282.06,1154.66 1279,1159.5C 1272.92,1165.09 1266.75,1170.43 1260.5,1175.5C 1260.5,1176.17 1260.5,1176.83 1260.5,1177.5C 1255.5,1177.5 1250.5,1177.5 1245.5,1177.5C 1268.19,1167.21 1283.86,1150.21 1292.5,1126.5C 1294.81,1118.66 1295.81,1110.66 1295.5,1102.5C 1296.5,1102.5 1297.5,1102.5 1298.5,1102.5C 1298.5,763.167 1298.5,423.833 1298.5,84.5C 1297.5,84.5 1296.5,84.5 1295.5,84.5C 1294.59,54.1111 1281.26,30.9445 1255.5,15C 1243.38,8.22098 1230.38,5.05431 1216.5,5.5C 1216.5,4.5 1216.5,3.5 1216.5,2.5C 839.167,2.5 461.833,2.5 84.5,2.5C 84.5,3.5 84.5,4.5 84.5,5.5C 54.1111,6.40874 30.9445,19.7421 15,45.5C 8.22098,57.6162 5.05431,70.6162 5.5,84.5C 4.5,84.5 3.5,84.5 2.5,84.5C 2.5,423.833 2.5,763.167 2.5,1102.5C 3.5,1102.5 4.5,1102.5 5.5,1102.5C 6.20016,1128.47 16.5335,1149.63 36.5,1166C 42.7046,1170.31 49.0379,1174.15 55.5,1177.5C 50.5,1177.5 45.5,1177.5 40.5,1177.5C 40.5,1176.83 40.5,1176.17 40.5,1175.5C 36.6729,1171.56 32.3396,1168.06 27.5,1165C 21.9055,1158.92 16.5721,1152.75 11.5,1146.5C 9.95186,1146.18 9.28519,1145.18 9.5,1143.5C 9.84316,1141.52 9.17649,1140.18 7.5,1139.5C 7.5,1139.17 7.5,1138.83 7.5,1138.5C 7.84316,1136.52 7.17649,1135.18 5.5,1134.5C 5.5,1133.5 5.5,1132.5 5.5,1131.5C 5.5,1129.83 5.5,1128.17 5.5,1126.5C 4.5,1126.5 3.5,1126.5 2.5,1126.5C 2.5,1123.83 2.5,1121.17 2.5,1118.5C 2.5,1115.5 2.5,1112.5 2.5,1109.5C 1.5,1109.5 0.5,1109.5 -0.5,1109.5C -0.5,765.5 -0.5,421.5 -0.5,77.5C 0.5,77.5 1.5,77.5 2.5,77.5C 2.5,74.5 2.5,71.5 2.5,68.5C 2.5,65.8333 2.5,63.1667 2.5,60.5C 3.5,60.5 4.5,60.5 5.5,60.5C 5.5,58.8333 5.5,57.1667 5.5,55.5C 5.5,54.5 5.5,53.5 5.5,52.5C 7.17649,51.8166 7.84316,50.4832 7.5,48.5C 7.5,48.1667 7.5,47.8333 7.5,47.5C 9.17649,46.8166 9.84316,45.4832 9.5,43.5C 9.28519,41.8212 9.95186,40.8212 11.5,40.5C 15.4413,36.6729 18.9413,32.3396 22,27.5C 28.0835,21.9055 34.2502,16.5721 40.5,11.5C 40.8212,9.95186 41.8212,9.28519 43.5,9.5C 45.4832,9.84316 46.8166,9.17649 47.5,7.5C 47.8333,7.5 48.1667,7.5 48.5,7.5C 50.4832,7.84316 51.8166,7.17649 52.5,5.5C 53.5,5.5 54.5,5.5 55.5,5.5C 57.1667,5.5 58.8333,5.5 60.5,5.5C 60.5,4.5 60.5,3.5 60.5,2.5C 63.1667,2.5 65.8333,2.5 68.5,2.5C 71.5,2.5 74.5,2.5 77.5,2.5C 77.5,1.5 77.5,0.5 77.5,-0.5 Z"/></g>
<g><path style="opacity:0.004" fill="#fefffe" d="M 1223.5,-0.5 C 1226.5,-0.5 1229.5,-0.5 1232.5,-0.5C 1232.5,0.5 1232.5,1.5 1232.5,2.5C 1229.5,2.5 1226.5,2.5 1223.5,2.5C 1223.5,1.5 1223.5,0.5 1223.5,-0.5 Z"/></g>
<g><path style="opacity:0.004" fill="#000000" d="M 1232.5,-0.5 C 1240.83,-0.5 1249.17,-0.5 1257.5,-0.5C 1257.5,0.5 1257.5,1.5 1257.5,2.5C 1259.83,2.5 1262.17,2.5 1264.5,2.5C 1264.5,3.5 1264.5,4.5 1264.5,5.5C 1266.29,5.21478 1267.95,5.54811 1269.5,6.5C 1277.84,13.1629 1285.51,20.4963 1292.5,28.5C 1294.55,30.7961 1295.55,33.4628 1295.5,36.5C 1296.5,36.5 1297.5,36.5 1298.5,36.5C 1298.5,38.8333 1298.5,41.1667 1298.5,43.5C 1299.5,43.5 1300.5,43.5 1301.5,43.5C 1301.5,51.8333 1301.5,60.1667 1301.5,68.5C 1300.5,68.5 1299.5,68.5 1298.5,68.5C 1298.5,65.8333 1298.5,63.1667 1298.5,60.5C 1298.5,58.8333 1298.5,57.1667 1298.5,55.5C 1297.5,55.5 1296.5,55.5 1295.5,55.5C 1295.5,54.5 1295.5,53.5 1295.5,52.5C 1295.84,50.5168 1295.18,49.1834 1293.5,48.5C 1293.5,48.1667 1293.5,47.8333 1293.5,47.5C 1293.84,45.5168 1293.18,44.1834 1291.5,43.5C 1291.71,41.8212 1291.05,40.8212 1289.5,40.5C 1282.83,27.8333 1273.17,18.1667 1260.5,11.5C 1260.18,9.95186 1259.18,9.28519 1257.5,9.5C 1256.82,7.82351 1255.48,7.15684 1253.5,7.5C 1253.17,7.5 1252.83,7.5 1252.5,7.5C 1251.82,5.82351 1250.48,5.15684 1248.5,5.5C 1247.5,5.5 1246.5,5.5 1245.5,5.5C 1245.5,4.5 1245.5,3.5 1245.5,2.5C 1243.83,2.5 1242.17,2.5 1240.5,2.5C 1237.83,2.5 1235.17,2.5 1232.5,2.5C 1232.5,1.5 1232.5,0.5 1232.5,-0.5 Z"/></g>
<g><path style="opacity:0.004" fill="#fefffe" d="M 60.5,2.5 C 60.5,3.5 60.5,4.5 60.5,5.5C 58.8333,5.5 57.1667,5.5 55.5,5.5C 55.5,4.5 55.5,3.5 55.5,2.5C 57.1667,2.5 58.8333,2.5 60.5,2.5 Z"/></g>
<g><path style="opacity:0.012" fill="#545454" d="M 1245.5,1177.5 C 1241.17,1177.5 1236.83,1177.5 1232.5,1177.5C 1248.14,1172.08 1261.97,1163.41 1274,1151.5C 1281.3,1141.43 1286.8,1130.43 1290.5,1118.5C 1291.48,1115.57 1291.82,1112.57 1291.5,1109.5C 1293.46,1102.58 1294.13,1095.24 1293.5,1087.5C 1294.83,923.168 1295.5,758.501 1295.5,593.5C 1295.5,428.499 1294.83,263.832 1293.5,99.5C 1294.13,91.7572 1293.46,84.4238 1291.5,77.5C 1285.17,38.5 1262.5,15.8333 1223.5,9.5C 1216.58,7.53672 1209.24,6.87006 1201.5,7.5C 1018.17,6.16667 834.501,5.5 650.5,5.5C 466.499,5.5 282.832,6.16667 99.5,7.5C 91.7572,6.87006 84.4238,7.53672 77.5,9.5C 38.5,15.8333 15.8333,38.5 9.5,77.5C 7.53672,84.4238 6.87006,91.7572 7.5,99.5C 6.16667,263.832 5.5,428.499 5.5,593.5C 5.5,758.501 6.16667,923.168 7.5,1087.5C 6.87006,1095.24 7.53672,1102.58 9.5,1109.5C 12.6656,1132.67 23.6656,1151.17 42.5,1165C 50.9272,1170.05 59.5938,1174.22 68.5,1177.5C 64.1667,1177.5 59.8333,1177.5 55.5,1177.5C 49.0379,1174.15 42.7046,1170.31 36.5,1166C 16.5335,1149.63 6.20016,1128.47 5.5,1102.5C 4.5,1102.5 3.5,1102.5 2.5,1102.5C 2.5,763.167 2.5,423.833 2.5,84.5C 3.5,84.5 4.5,84.5 5.5,84.5C 5.05431,70.6162 8.22098,57.6162 15,45.5C 30.9445,19.7421 54.1111,6.40874 84.5,5.5C 84.5,4.5 84.5,3.5 84.5,2.5C 461.833,2.5 839.167,2.5 1216.5,2.5C 1216.5,3.5 1216.5,4.5 1216.5,5.5C 1230.38,5.05431 1243.38,8.22098 1255.5,15C 1281.26,30.9445 1294.59,54.1111 1295.5,84.5C 1296.5,84.5 1297.5,84.5 1298.5,84.5C 1298.5,423.833 1298.5,763.167 1298.5,1102.5C 1297.5,1102.5 1296.5,1102.5 1295.5,1102.5C 1295.81,1110.66 1294.81,1118.66 1292.5,1126.5C 1283.86,1150.21 1268.19,1167.21 1245.5,1177.5 Z"/></g>
<g><path style="opacity:0.004" fill="#fefffe" d="M 1240.5,2.5 C 1242.17,2.5 1243.83,2.5 1245.5,2.5C 1245.5,3.5 1245.5,4.5 1245.5,5.5C 1243.83,5.5 1242.17,5.5 1240.5,5.5C 1240.5,4.5 1240.5,3.5 1240.5,2.5 Z"/></g>
<g><path style="opacity:0.004" fill="#fefffe" d="M 52.5,5.5 C 51.8166,7.17649 50.4832,7.84316 48.5,7.5C 49.1834,5.82351 50.5168,5.15684 52.5,5.5 Z"/></g>
<g><path style="opacity:0.016" fill="#7f807f" d="M 1201.5,7.5 C 834.167,7.5 466.833,7.5 99.5,7.5C 282.832,6.16667 466.499,5.5 650.5,5.5C 834.501,5.5 1018.17,6.16667 1201.5,7.5 Z"/></g>
<g><path style="opacity:0.004" fill="#fefffe" d="M 1248.5,5.5 C 1250.48,5.15684 1251.82,5.82351 1252.5,7.5C 1250.52,7.84316 1249.18,7.17649 1248.5,5.5 Z"/></g>
<g><path style="opacity:0.004" fill="#fefffe" d="M 47.5,7.5 C 46.8166,9.17649 45.4832,9.84316 43.5,9.5C 44.1834,7.82351 45.5168,7.15684 47.5,7.5 Z"/></g>
<g><path style="opacity:0.02" fill="#656565" d="M 99.5,7.5 C 466.833,7.5 834.167,7.5 1201.5,7.5C 1209.24,6.87006 1216.58,7.53672 1223.5,9.5C 1262.5,15.8333 1285.17,38.5 1291.5,77.5C 1293.46,84.4238 1294.13,91.7572 1293.5,99.5C 1293.5,428.833 1293.5,758.167 1293.5,1087.5C 1294.13,1095.24 1293.46,1102.58 1291.5,1109.5C 1288.62,1117.3 1285.78,1125.3 1283,1133.5C 1273.87,1151.97 1259.7,1164.8 1240.5,1172C 1234.46,1173.4 1228.79,1175.23 1223.5,1177.5C 1217.83,1177.5 1212.17,1177.5 1206.5,1177.5C 1206.5,1176.83 1206.5,1176.17 1206.5,1175.5C 1257.83,1171.5 1285.5,1143.83 1289.5,1092.5C 1290.83,926.501 1291.5,760.168 1291.5,593.5C 1291.5,426.832 1290.83,260.499 1289.5,94.5C 1285.5,43.1667 1257.83,15.5 1206.5,11.5C 1021.5,10.1667 836.168,9.5 650.5,9.5C 464.832,9.5 279.499,10.1667 94.5,11.5C 43.1667,15.5 15.5,43.1667 11.5,94.5C 10.1667,260.499 9.5,426.832 9.5,593.5C 9.5,760.168 10.1667,926.501 11.5,1092.5C 15.5,1143.83 43.1667,1171.5 94.5,1175.5C 94.5,1176.17 94.5,1176.83 94.5,1177.5C 88.8333,1177.5 83.1667,1177.5 77.5,1177.5C 69.6998,1174.62 61.6998,1171.78 53.5,1169C 35.0331,1159.87 22.1998,1145.7 15,1126.5C 13.5992,1120.46 11.7658,1114.79 9.5,1109.5C 7.53672,1102.58 6.87006,1095.24 7.5,1087.5C 7.5,758.167 7.5,428.833 7.5,99.5C 6.87006,91.7572 7.53672,84.4238 9.5,77.5C 12.3849,69.6998 15.2183,61.6998 18,53.5C 27.1303,35.0331 41.297,22.1998 60.5,15C 66.5449,13.5992 72.2115,11.7658 77.5,9.5C 84.4238,7.53672 91.7572,6.87006 99.5,7.5 Z"/></g>
<g><path style="opacity:0.004" fill="#fefffe" d="M 1253.5,7.5 C 1255.48,7.15684 1256.82,7.82351 1257.5,9.5C 1255.52,9.84316 1254.18,9.17649 1253.5,7.5 Z"/></g>
<g><path style="opacity:0.016" fill="#7f807f" d="M 77.5,9.5 C 72.2115,11.7658 66.5449,13.5992 60.5,15C 41.297,22.1998 27.1303,35.0331 18,53.5C 15.2183,61.6998 12.3849,69.6998 9.5,77.5C 15.8333,38.5 38.5,15.8333 77.5,9.5 Z"/></g>
<g><path style="opacity:0.024" fill="#545554" d="M 1206.5,11.5 C 835.833,11.5 465.167,11.5 94.5,11.5C 279.499,10.1667 464.832,9.5 650.5,9.5C 836.168,9.5 1021.5,10.1667 1206.5,11.5 Z"/></g>
<g><path style="opacity:0.016" fill="#7f807f" d="M 1223.5,9.5 C 1262.5,15.8333 1285.17,38.5 1291.5,77.5C 1288.62,69.6998 1285.78,61.6998 1283,53.5C 1273.87,35.0331 1259.7,22.1998 1240.5,15C 1234.46,13.5992 1228.79,11.7658 1223.5,9.5 Z"/></g>
<g><path style="opacity:0.004" fill="#fefffe" d="M 40.5,11.5 C 34.2502,16.5721 28.0835,21.9055 22,27.5C 18.9413,32.3396 15.4413,36.6729 11.5,40.5C 18.1667,27.8333 27.8333,18.1667 40.5,11.5 Z"/></g>
<g><path style="opacity:0.004" fill="#fefffe" d="M 1260.5,11.5 C 1273.17,18.1667 1282.83,27.8333 1289.5,40.5C 1284.43,34.2502 1279.09,28.0835 1273.5,22C 1268.66,18.9413 1264.33,15.4413 1260.5,11.5 Z"/></g>
<g><path style="opacity:0.004" fill="#fefffe" d="M 9.5,43.5 C 9.84316,45.4832 9.17649,46.8166 7.5,47.5C 7.15684,45.5168 7.82351,44.1834 9.5,43.5 Z"/></g>
<g><path style="opacity:0.004" fill="#fefffe" d="M 1291.5,43.5 C 1293.18,44.1834 1293.84,45.5168 1293.5,47.5C 1291.82,46.8166 1291.16,45.4832 1291.5,43.5 Z"/></g>
<g><path style="opacity:0.004" fill="#fefffe" d="M 7.5,48.5 C 7.84316,50.4832 7.17649,51.8166 5.5,52.5C 5.15684,50.5168 5.82351,49.1834 7.5,48.5 Z"/></g>
<g><path style="opacity:0.004" fill="#fefffe" d="M 1293.5,48.5 C 1295.18,49.1834 1295.84,50.5168 1295.5,52.5C 1293.82,51.8166 1293.16,50.4832 1293.5,48.5 Z"/></g>
<g><path style="opacity:0.004" fill="#fefffe" d="M 5.5,55.5 C 5.5,57.1667 5.5,58.8333 5.5,60.5C 4.5,60.5 3.5,60.5 2.5,60.5C 2.5,58.8333 2.5,57.1667 2.5,55.5C 3.5,55.5 4.5,55.5 5.5,55.5 Z"/></g>
<g><path style="opacity:0.004" fill="#fefffe" d="M 1295.5,55.5 C 1296.5,55.5 1297.5,55.5 1298.5,55.5C 1298.5,57.1667 1298.5,58.8333 1298.5,60.5C 1297.5,60.5 1296.5,60.5 1295.5,60.5C 1295.5,58.8333 1295.5,57.1667 1295.5,55.5 Z"/></g>
<g><path style="opacity:0.004" fill="#fefffe" d="M -0.5,68.5 C 0.5,68.5 1.5,68.5 2.5,68.5C 2.5,71.5 2.5,74.5 2.5,77.5C 1.5,77.5 0.5,77.5 -0.5,77.5C -0.5,74.5 -0.5,71.5 -0.5,68.5 Z"/></g>
<g><path style="opacity:0.004" fill="#fefffe" d="M 1298.5,68.5 C 1299.5,68.5 1300.5,68.5 1301.5,68.5C 1301.5,71.5 1301.5,74.5 1301.5,77.5C 1300.5,77.5 1299.5,77.5 1298.5,77.5C 1298.5,74.5 1298.5,71.5 1298.5,68.5 Z"/></g>
<g><path style="opacity:0.027" fill="#6d6d6d" d="M 94.5,11.5 C 465.167,11.5 835.833,11.5 1206.5,11.5C 1257.83,15.5 1285.5,43.1667 1289.5,94.5C 1289.5,427.167 1289.5,759.833 1289.5,1092.5C 1285.5,1143.83 1257.83,1171.5 1206.5,1175.5C 835.833,1175.5 465.167,1175.5 94.5,1175.5C 43.1667,1171.5 15.5,1143.83 11.5,1092.5C 11.5,759.833 11.5,427.167 11.5,94.5C 15.5,43.1667 43.1667,15.5 94.5,11.5 Z"/></g>
<g><path style="opacity:0.031" fill="#5f5f5f" d="M 99.5,13.5 C 466.833,13.3333 834.167,13.5 1201.5,14C 1256.67,15.8333 1285.17,44.3333 1287,99.5C 1287.67,428.833 1287.67,758.167 1287,1087.5C 1285.17,1142.67 1256.67,1171.17 1201.5,1173C 834.167,1173.67 466.833,1173.67 99.5,1173C 44.3333,1171.17 15.8333,1142.67 14,1087.5C 13.3333,758.167 13.3333,428.833 14,99.5C 16.009,44.3247 44.509,15.658 99.5,13.5 Z"/></g>
<g><path style="opacity:0.216" fill="#656565" d="M 100.5,19.5 C 106.319,20.3276 112.319,20.8276 118.5,21C 114.833,21.3333 111.167,21.6667 107.5,22C 469.667,22.8331 831.667,22.6664 1193.5,21.5C 1200.49,20.9115 1207.49,20.5782 1214.5,20.5C 1217.88,20.3396 1221.22,20.673 1224.5,21.5C 1227.66,19.274 1231,19.1073 1234.5,21C 1259.41,29.743 1275.08,46.9097 1281.5,72.5C 1280.83,73.8333 1280.17,75.1667 1279.5,76.5C 1280.33,79.7831 1280.66,83.1165 1280.5,86.5C 1281.83,424.5 1281.83,762.5 1280.5,1100.5C 1280.66,1103.88 1280.33,1107.22 1279.5,1110.5C 1281.73,1113.66 1281.89,1117 1280,1120.5C 1271.26,1145.41 1254.09,1161.08 1228.5,1167.5C 1223.87,1166.45 1219.2,1166.28 1214.5,1167C 1218.17,1167.33 1221.83,1167.67 1225.5,1168C 1221.27,1169.29 1216.94,1169.79 1212.5,1169.5C 1202.49,1169.82 1192.49,1170.32 1182.5,1171C 827.833,1171.67 473.167,1171.67 118.5,1171C 108.505,1170.32 98.5055,1169.82 88.5,1169.5C 84.0638,1169.79 79.7305,1169.29 75.5,1168C 79.1667,1167.67 82.8333,1167.33 86.5,1167C 54.1099,1167.01 32.2766,1151.51 21,1120.5C 19.1073,1117 19.274,1113.66 21.5,1110.5C 20.673,1107.22 20.3396,1103.88 20.5,1100.5C 21.2104,1089.84 21.3771,1079.17 21,1068.5C 20.6667,1074.5 20.3333,1080.5 20,1086.5C 19.3333,757.833 19.3333,429.167 20,100.5C 20.3333,106.5 20.6667,112.5 21,118.5C 21.2423,104.147 20.7423,89.8137 19.5,75.5C 26.4164,43.4186 46.083,24.252 78.5,18C 81.8168,17.5017 85.1501,17.335 88.5,17.5C 98.5055,17.1762 108.505,16.6762 118.5,16C 295.833,15.8333 473.167,15.6667 650.5,15.5C 833.511,15.344 1016.51,15.844 1199.5,17C 1203.5,17.6667 1207.5,18.3333 1211.5,19C 1203.5,19.1433 1195.5,18.8099 1187.5,18C 829.5,17.3333 471.5,17.3333 113.5,18C 108.404,18.1394 104.071,18.6394 100.5,19.5 Z"/></g>
<g><path style="opacity:1" fill="#dddddd" d="M 50.5,66.5 C 52.0861,67.4132 53.5861,67.4132 55,66.5C 55.6914,68.8912 56.6914,68.8912 58,66.5C 59.7287,68.4337 61.7287,68.4337 64,66.5C 71.2816,67.7357 78.9483,67.7357 87,66.5C 87.6914,68.8912 88.6914,68.8912 90,66.5C 91.7287,68.4337 93.7287,68.4337 96,66.5C 103.282,67.7357 110.948,67.7357 119,66.5C 119.691,68.8912 120.691,68.8912 122,66.5C 123.729,68.4337 125.729,68.4337 128,66.5C 135.282,67.7357 142.948,67.7357 151,66.5C 151.691,68.8912 152.691,68.8912 154,66.5C 155.729,68.4337 157.729,68.4337 160,66.5C 167.282,67.7357 174.948,67.7357 183,66.5C 183.691,68.8912 184.691,68.8912 186,66.5C 187.729,68.4337 189.729,68.4337 192,66.5C 538.274,66.5005 884.607,66.5005 1231,66.5C 1231.69,68.8912 1232.69,68.8912 1234,66.5C 1235.73,68.4337 1237.73,68.4337 1240,66.5C 1243.26,66.6396 1246.76,66.6396 1250.5,66.5C 1250.5,72.5 1250.5,78.5 1250.5,84.5C 897.941,84.5048 545.441,84.5048 193,84.5C 191.271,86.4337 189.271,86.4337 187,84.5C 186,85.1667 185,85.8333 184,86.5C 183.29,85.0267 182.124,84.3601 180.5,84.5C 173.599,74.7992 165.932,74.1325 157.5,82.5C 156.5,82.5 155.5,82.5 154.5,82.5C 154.539,84.3588 153.706,85.6921 152,86.5C 151.667,85.8333 151.333,85.1667 151,84.5C 148.108,84.2724 145.441,84.6058 143,85.5C 142.29,84.0267 141.124,83.3601 139.5,83.5C 132.131,74.254 124.798,74.254 117.5,83.5C 115.549,83.2267 114.049,83.8934 113,85.5C 111.883,85.3349 110.716,85.0016 109.5,84.5C 108.459,86.9913 107.626,86.9913 107,84.5C 105.755,84.4615 104.422,84.7948 103,85.5C 101.923,84.5705 100.756,83.9038 99.5,83.5C 92.1311,74.254 84.7978,74.254 77.5,83.5C 76.7354,83.0766 75.9021,82.7432 75,82.5C 73.8643,83.7827 72.531,84.7827 71,85.5C 68.8347,85.5938 66.8347,85.2605 65,84.5C 63.2713,86.4337 61.2713,86.4337 59,84.5C 57.2087,86.5127 55.8753,86.5127 55,84.5C 53.5861,85.4132 52.0861,85.4132 50.5,84.5C 50.5,78.5 50.5,72.5 50.5,66.5 Z"/></g>
<g><path style="opacity:1" fill="#e2e2e2" d="M 59.5,50.5 C 256.166,51.8333 453.166,52.5 650.5,52.5C 847.834,52.5 1044.83,51.8333 1241.5,50.5C 1244.72,50.7759 1247.39,52.1093 1249.5,54.5C 1250.36,58.4338 1250.69,62.4338 1250.5,66.5C 1246.76,66.6396 1243.26,66.6396 1240,66.5C 1237.73,68.4337 1235.73,68.4337 1234,66.5C 1232.69,68.8912 1231.69,68.8912 1231,66.5C 884.607,66.5005 538.274,66.5005 192,66.5C 189.729,68.4337 187.729,68.4337 186,66.5C 184.691,68.8912 183.691,68.8912 183,66.5C 174.948,67.7357 167.282,67.7357 160,66.5C 157.729,68.4337 155.729,68.4337 154,66.5C 152.691,68.8912 151.691,68.8912 151,66.5C 142.948,67.7357 135.282,67.7357 128,66.5C 125.729,68.4337 123.729,68.4337 122,66.5C 120.691,68.8912 119.691,68.8912 119,66.5C 110.948,67.7357 103.282,67.7357 96,66.5C 93.7287,68.4337 91.7287,68.4337 90,66.5C 88.6914,68.8912 87.6914,68.8912 87,66.5C 78.9483,67.7357 71.2816,67.7357 64,66.5C 61.7287,68.4337 59.7287,68.4337 58,66.5C 56.6914,68.8912 55.6914,68.8912 55,66.5C 53.5861,67.4132 52.0861,67.4132 50.5,66.5C 50.307,62.4338 50.6403,58.4338 51.5,54.5C 53.6148,52.1093 56.2814,50.7759 59.5,50.5 Z"/></g>
<g><path style="opacity:1" fill="#eeeeee" d="M 59.5,50.5 C 453.5,50.5 847.5,50.5 1241.5,50.5C 1044.83,51.8333 847.834,52.5 650.5,52.5C 453.166,52.5 256.166,51.8333 59.5,50.5 Z"/></g>
<g><path style="opacity:0.059" fill="#636363" d="M 100.5,19.5 C 467.167,19.3333 833.833,19.5 1200.5,20C 1194.5,20.3333 1188.5,20.6667 1182.5,21C 1186.15,21.4986 1189.82,21.6653 1193.5,21.5C 831.667,22.6664 469.667,22.8331 107.5,22C 111.167,21.6667 114.833,21.3333 118.5,21C 112.319,20.8276 106.319,20.3276 100.5,19.5 Z"/></g>
<g><path style="opacity:0.047" fill="#6e6e6e" d="M 1214.5,20.5 C 1207.49,20.5782 1200.49,20.9115 1193.5,21.5C 1189.82,21.6653 1186.15,21.4986 1182.5,21C 1188.5,20.6667 1194.5,20.3333 1200.5,20C 833.833,19.5 467.167,19.3333 100.5,19.5C 104.071,18.6394 108.404,18.1394 113.5,18C 471.5,17.3333 829.5,17.3333 1187.5,18C 1195.5,18.8099 1203.5,19.1433 1211.5,19C 1207.5,18.3333 1203.5,17.6667 1199.5,17C 1016.51,15.844 833.511,15.344 650.5,15.5C 473.167,15.6667 295.833,15.8333 118.5,16C 108.505,16.6762 98.5055,17.1762 88.5,17.5C 94.599,15.9846 100.932,15.1512 107.5,15C 469.5,14.3333 831.5,14.3333 1193.5,15C 1204.26,15.6837 1214.93,17.017 1225.5,19C 1221.64,19.1773 1217.98,19.6773 1214.5,20.5 Z"/></g>
<g><path style="opacity:1" fill="#fb5f56" d="M 99.5,83.5 C 101.333,96.8319 95.6668,101.999 82.5,99C 77.1071,94.9892 75.4405,89.8226 77.5,83.5C 84.7978,74.254 92.1311,74.254 99.5,83.5 Z"/></g>
<g><path style="opacity:1" fill="#fabc2f" d="M 139.5,83.5 C 141.881,93.2962 138.048,98.9629 128,100.5C 118.503,98.508 115.003,92.8414 117.5,83.5C 124.798,74.254 132.131,74.254 139.5,83.5 Z"/></g>
<g><path style="opacity:1" fill="#29ca40" d="M 180.5,84.5 C 181.226,90.6673 179.226,95.6673 174.5,99.5C 166.075,102.369 160.241,99.7026 157,91.5C 156.366,88.4453 156.532,85.4453 157.5,82.5C 165.932,74.1325 173.599,74.7992 180.5,84.5 Z"/></g>
<g><path style="opacity:1" fill="#d7d7d7" d="M 180.5,84.5 C 182.124,84.3601 183.29,85.0267 184,86.5C 185,85.8333 186,85.1667 187,84.5C 189.271,86.4337 191.271,86.4337 193,84.5C 545.441,84.5048 897.941,84.5048 1250.5,84.5C 1250.5,89.8333 1250.5,95.1667 1250.5,100.5C 892.272,99.5069 534.605,99.1735 177.5,99.5C 176.466,102.125 175.466,102.125 174.5,99.5C 179.226,95.6673 181.226,90.6673 180.5,84.5 Z"/></g>
<g><path style="opacity:0.024" fill="#545554" d="M 11.5,94.5 C 11.5,427.167 11.5,759.833 11.5,1092.5C 10.1667,926.501 9.5,760.168 9.5,593.5C 9.5,426.832 10.1667,260.499 11.5,94.5 Z"/></g>
<g><path style="opacity:0.024" fill="#545554" d="M 1289.5,94.5 C 1290.83,260.499 1291.5,426.832 1291.5,593.5C 1291.5,760.168 1290.83,926.501 1289.5,1092.5C 1289.5,759.833 1289.5,427.167 1289.5,94.5 Z"/></g>
<g><path style="opacity:0.016" fill="#7f807f" d="M 7.5,99.5 C 7.5,428.833 7.5,758.167 7.5,1087.5C 6.16667,923.168 5.5,758.501 5.5,593.5C 5.5,428.499 6.16667,263.832 7.5,99.5 Z"/></g>
<g><path style="opacity:0.016" fill="#7f807f" d="M 1293.5,99.5 C 1294.83,263.832 1295.5,428.499 1295.5,593.5C 1295.5,758.501 1294.83,923.168 1293.5,1087.5C 1293.5,758.167 1293.5,428.833 1293.5,99.5 Z"/></g>
<g><path style="opacity:1" fill="#d2d2d2" d="M 77.5,83.5 C 75.4405,89.8226 77.1071,94.9892 82.5,99C 95.6668,101.999 101.333,96.8319 99.5,83.5C 100.756,83.9038 101.923,84.5705 103,85.5C 104.422,84.7948 105.755,84.4615 107,84.5C 107.626,86.9913 108.459,86.9913 109.5,84.5C 110.716,85.0016 111.883,85.3349 113,85.5C 114.049,83.8934 115.549,83.2267 117.5,83.5C 115.003,92.8414 118.503,98.508 128,100.5C 138.048,98.9629 141.881,93.2962 139.5,83.5C 141.124,83.3601 142.29,84.0267 143,85.5C 145.441,84.6058 148.108,84.2724 151,84.5C 151.333,85.1667 151.667,85.8333 152,86.5C 153.706,85.6921 154.539,84.3588 154.5,82.5C 155.5,82.5 156.5,82.5 157.5,82.5C 156.532,85.4453 156.366,88.4453 157,91.5C 160.241,99.7026 166.075,102.369 174.5,99.5C 175.466,102.125 176.466,102.125 177.5,99.5C 534.605,99.1735 892.272,99.5069 1250.5,100.5C 1250.5,106.167 1250.5,111.833 1250.5,117.5C 897.005,117.18 543.505,117.513 190,118.5C 188.674,118.245 187.674,117.578 187,116.5C 184.791,118.706 182.291,119.04 179.5,117.5C 178.522,117.977 177.689,118.643 177,119.5C 176.333,116.833 175.667,116.833 175,119.5C 174.667,118.833 174.333,118.167 174,117.5C 168.774,117.258 163.441,117.592 158,118.5C 156.674,118.245 155.674,117.578 155,116.5C 152.791,118.706 150.291,119.04 147.5,117.5C 146.522,117.977 145.689,118.643 145,119.5C 144.333,116.833 143.667,116.833 143,119.5C 142.667,118.833 142.333,118.167 142,117.5C 136.774,117.258 131.441,117.592 126,118.5C 124.674,118.245 123.674,117.578 123,116.5C 120.791,118.706 118.291,119.04 115.5,117.5C 114.522,117.977 113.689,118.643 113,119.5C 112.333,116.833 111.667,116.833 111,119.5C 110.667,118.833 110.333,118.167 110,117.5C 104.774,117.258 99.4405,117.592 94,118.5C 92.6739,118.245 91.6739,117.578 91,116.5C 88.791,118.706 86.291,119.04 83.5,117.5C 82.5224,117.977 81.6891,118.643 81,119.5C 80.3333,116.833 79.6667,116.833 79,119.5C 78.6667,118.833 78.3333,118.167 78,117.5C 68.8562,118.224 59.6895,118.224 50.5,117.5C 50.5,106.5 50.5,95.5 50.5,84.5C 52.0861,85.4132 53.5861,85.4132 55,84.5C 55.8753,86.5127 57.2087,86.5127 59,84.5C 61.2713,86.4337 63.2713,86.4337 65,84.5C 66.8347,85.2605 68.8347,85.5938 71,85.5C 72.531,84.7827 73.8643,83.7827 75,82.5C 75.9021,82.7432 76.7354,83.0766 77.5,83.5 Z"/></g>
<g><path style="opacity:0.047" fill="#6e6e6e" d="M 19.5,75.5 C 20.7423,89.8137 21.2423,104.147 21,118.5C 20.6667,112.5 20.3333,106.5 20,100.5C 19.3333,429.167 19.3333,757.833 20,1086.5C 20.3333,1080.5 20.6667,1074.5 21,1068.5C 21.3771,1079.17 21.2104,1089.84 20.5,1100.5C 19.6773,1103.98 19.1773,1107.64 19,1111.5C 17.017,1100.93 15.6837,1090.26 15,1079.5C 14.3333,755.5 14.3333,431.5 15,107.5C 15.6724,97.799 16.6724,88.1323 18,78.5C 18.2321,77.2625 18.7321,76.2625 19.5,75.5 Z"/></g>
<g><path style="opacity:0.039" fill="#656565" d="M 18.5,89.5 C 19.1599,90.964 19.4932,92.6307 19.5,94.5C 18.9053,100.826 18.4053,107.159 18,113.5C 17.8333,273.5 17.6667,433.5 17.5,593.5C 17.35,761.529 17.85,929.529 19,1097.5C 17.1425,1087.93 16.1425,1078.26 16,1068.5C 15.3333,751.833 15.3333,435.167 16,118.5C 16.307,108.776 17.1403,99.1095 18.5,89.5 Z"/></g>
<g><path style="opacity:0.047" fill="#6e6e6e" d="M 1280.5,1100.5 C 1281.83,762.5 1281.83,424.5 1280.5,86.5C 1281.32,83.023 1281.82,79.3563 1282,75.5C 1283.98,86.0688 1285.32,96.7355 1286,107.5C 1286.67,431.5 1286.67,755.5 1286,1079.5C 1285.32,1090.26 1283.98,1100.93 1282,1111.5C 1281.82,1107.64 1281.32,1103.98 1280.5,1100.5 Z"/></g>
<g><path style="opacity:0.039" fill="#656565" d="M 1281.5,89.5 C 1283.85,98.8788 1285.02,108.546 1285,118.5C 1285.67,435.167 1285.67,751.833 1285,1068.5C 1284.86,1078.26 1283.86,1087.93 1282,1097.5C 1283.15,929.529 1283.65,761.529 1283.5,593.5C 1283.33,433.5 1283.17,273.5 1283,113.5C 1282.36,105.505 1281.86,97.5046 1281.5,89.5 Z"/></g>
<g><path style="opacity:0.568" fill="#262626" d="M 51.5,54.5 C 50.6403,58.4338 50.307,62.4338 50.5,66.5C 50.5,72.5 50.5,78.5 50.5,84.5C 50.5,95.5 50.5,106.5 50.5,117.5C 50.5,120.5 50.5,123.5 50.5,126.5C 50.5,457.833 50.5,789.167 50.5,1120.5C 49.8333,943.167 49.5,765.667 49.5,588C 49.6667,410.5 49.8333,233 50,55.5C 50.3826,54.944 50.8826,54.6107 51.5,54.5 Z"/></g>
<g><path style="opacity:0.568" fill="#262626" d="M 1249.5,54.5 C 1250.12,54.6107 1250.62,54.944 1251,55.5C 1251.17,233 1251.33,410.5 1251.5,588C 1251.5,765.667 1251.17,943.167 1250.5,1120.5C 1250.5,789.167 1250.5,457.833 1250.5,126.5C 1250.5,123.5 1250.5,120.5 1250.5,117.5C 1250.5,111.833 1250.5,106.167 1250.5,100.5C 1250.5,95.1667 1250.5,89.8333 1250.5,84.5C 1250.5,78.5 1250.5,72.5 1250.5,66.5C 1250.69,62.4338 1250.36,58.4338 1249.5,54.5 Z"/></g>
<g><path style="opacity:1" fill="#c8c8c8" d="M 1250.5,117.5 C 1250.5,120.5 1250.5,123.5 1250.5,126.5C 850.5,126.5 450.5,126.5 50.5,126.5C 50.5,123.5 50.5,120.5 50.5,117.5C 59.6895,118.224 68.8562,118.224 78,117.5C 78.3333,118.167 78.6667,118.833 79,119.5C 79.6667,116.833 80.3333,116.833 81,119.5C 81.6891,118.643 82.5224,117.977 83.5,117.5C 86.291,119.04 88.791,118.706 91,116.5C 91.6739,117.578 92.6739,118.245 94,118.5C 99.4405,117.592 104.774,117.258 110,117.5C 110.333,118.167 110.667,118.833 111,119.5C 111.667,116.833 112.333,116.833 113,119.5C 113.689,118.643 114.522,117.977 115.5,117.5C 118.291,119.04 120.791,118.706 123,116.5C 123.674,117.578 124.674,118.245 126,118.5C 131.441,117.592 136.774,117.258 142,117.5C 142.333,118.167 142.667,118.833 143,119.5C 143.667,116.833 144.333,116.833 145,119.5C 145.689,118.643 146.522,117.977 147.5,117.5C 150.291,119.04 152.791,118.706 155,116.5C 155.674,117.578 156.674,118.245 158,118.5C 163.441,117.592 168.774,117.258 174,117.5C 174.333,118.167 174.667,118.833 175,119.5C 175.667,116.833 176.333,116.833 177,119.5C 177.689,118.643 178.522,117.977 179.5,117.5C 182.291,119.04 184.791,118.706 187,116.5C 187.674,117.578 188.674,118.245 190,118.5C 543.505,117.513 897.005,117.18 1250.5,117.5 Z"/></g>
<g><path style="opacity:1" fill="#e55604" d="M 50.5,126.5 C 450.5,126.5 850.5,126.5 1250.5,126.5C 1250.5,457.833 1250.5,789.167 1250.5,1120.5C 1249.19,1122.47 1247.53,1124.14 1245.5,1125.5C 848.804,1126.83 452.137,1126.83 55.5,1125.5C 53.4727,1124.14 51.806,1122.47 50.5,1120.5C 50.5,789.167 50.5,457.833 50.5,126.5 Z"/></g>
<g><path style="opacity:1" fill="#fdf7f5" d="M 593.5,525.5 C 595.833,525.5 598.167,525.5 600.5,525.5C 600.5,534.167 600.5,542.833 600.5,551.5C 605.833,551.5 611.167,551.5 616.5,551.5C 616.5,553.167 616.5,554.833 616.5,556.5C 608.833,556.5 601.167,556.5 593.5,556.5C 593.5,546.167 593.5,535.833 593.5,525.5 Z"/></g>
<g><path style="opacity:1" fill="#fdf4f0" d="M 688.5,525.5 C 690.833,525.5 693.167,525.5 695.5,525.5C 695.5,535.833 695.5,546.167 695.5,556.5C 693.167,556.5 690.833,556.5 688.5,556.5C 688.5,546.167 688.5,535.833 688.5,525.5 Z"/></g>
<g><path style="opacity:1" fill="#fdf7f6" d="M 627.5,532.5 C 643.247,532.318 647.58,539.318 640.5,553.5C 634.989,557.313 629.323,557.479 623.5,554C 620.557,549.29 619.724,544.123 621,538.5C 622.494,535.686 624.66,533.686 627.5,532.5 Z"/></g>
<g><path style="opacity:1" fill="#fdf2ed" d="M 653.5,532.5 C 657.803,531.796 661.303,533.13 664,536.5C 664.49,535.207 664.657,533.873 664.5,532.5C 666.5,532.5 668.5,532.5 670.5,532.5C 670.666,541.506 670.5,550.506 670,559.5C 665.914,565.118 660.414,566.951 653.5,565C 650.466,563.809 648.799,561.642 648.5,558.5C 650.527,558.338 652.527,558.505 654.5,559C 661.166,563.347 663.999,561.514 663,553.5C 657.967,557.779 653.3,557.446 649,552.5C 647.607,547.905 647.274,543.239 648,538.5C 649.36,535.977 651.193,533.977 653.5,532.5 Z"/></g>
<g><path style="opacity:1" fill="#fdf6f6" d="M 701.5,532.5 C 703.5,532.5 705.5,532.5 707.5,532.5C 707.367,537.272 708.7,537.438 711.5,533C 715.505,531.902 719.005,532.735 722,535.5C 722.5,542.492 722.666,549.492 722.5,556.5C 720.5,556.5 718.5,556.5 716.5,556.5C 716.666,550.824 716.499,545.157 716,539.5C 712.988,536.75 710.321,537.083 708,540.5C 707.501,545.823 707.334,551.156 707.5,556.5C 705.5,556.5 703.5,556.5 701.5,556.5C 701.5,548.5 701.5,540.5 701.5,532.5 Z"/></g>
<g><path style="opacity:1" fill="#e76017" d="M 629.5,536.5 C 632.652,535.959 635.152,536.959 637,539.5C 637.738,543.261 637.405,546.928 636,550.5C 629.297,553.672 626.13,551.339 626.5,543.5C 626.667,542.167 626.833,540.833 627,539.5C 628.045,538.627 628.878,537.627 629.5,536.5 Z"/></g>
<g><path style="opacity:1" fill="#e75c10" d="M 657.5,536.5 C 662.111,537.12 664.111,539.787 663.5,544.5C 664.306,548.515 662.806,551.182 659,552.5C 657.395,551.899 656.062,550.899 655,549.5C 654.333,545.833 654.333,542.167 655,538.5C 655.995,537.934 656.828,537.267 657.5,536.5 Z"/></g>
<g><path style="opacity:1" fill="#e6e6eb" d="M 420.5,636.5 C 578.999,635.334 737.666,635.167 896.5,636C 897.416,636.278 898.082,636.778 898.5,637.5C 739.188,636.506 579.855,636.172 420.5,636.5 Z"/></g>
<g><path style="opacity:1" fill="#fefefe" d="M 420.5,636.5 C 579.855,636.172 739.188,636.506 898.5,637.5C 899.79,638.058 900.623,639.058 901,640.5C 901.667,653.833 901.667,667.167 901,680.5C 900.623,681.942 899.79,682.942 898.5,683.5C 739.528,684.662 580.528,684.829 421.5,684C 420.255,683.209 418.922,682.709 417.5,682.5C 416.778,682.082 416.278,681.416 416,680.5C 415.333,667.167 415.333,653.833 416,640.5C 416.748,638.249 418.248,636.916 420.5,636.5 Z"/></g>
<g><path style="opacity:1" fill="#a6adbd" d="M 427.5,653.5 C 430.187,653.336 432.854,653.503 435.5,654C 433.527,654.495 431.527,654.662 429.5,654.5C 429.5,655.833 429.5,657.167 429.5,658.5C 437.5,658.833 437.5,659.167 429.5,659.5C 429.5,661.167 429.5,662.833 429.5,664.5C 431.857,664.337 434.19,664.503 436.5,665C 433.518,665.498 430.518,665.665 427.5,665.5C 427.5,661.5 427.5,657.5 427.5,653.5 Z"/></g>
<g><path style="opacity:1" fill="#c2c7d2" d="M 456.5,657.5 C 458.154,659.56 459.154,662.06 459.5,665C 456.939,664.599 454.272,664.765 451.5,665.5C 451.34,663.801 451.506,662.134 452,660.5C 454.026,660.085 455.526,659.085 456.5,657.5 Z"/></g>
<g><path style="opacity:1" fill="#e6e6eb" d="M 417.5,682.5 C 418.922,682.709 420.255,683.209 421.5,684C 580.528,684.829 739.528,684.662 898.5,683.5C 898.082,684.222 897.416,684.722 896.5,685C 737.833,685.667 579.167,685.667 420.5,685C 419.058,684.623 418.058,683.79 417.5,682.5 Z"/></g>
<g><path style="opacity:1" fill="#e6e6eb" d="M 420.5,710.5 C 578.999,709.334 737.666,709.167 896.5,710C 897.416,710.278 898.082,710.778 898.5,711.5C 739.188,710.506 579.855,710.172 420.5,710.5 Z"/></g>
<g><path style="opacity:1" fill="#fefefe" d="M 420.5,710.5 C 579.855,710.172 739.188,710.506 898.5,711.5C 899.79,712.058 900.623,713.058 901,714.5C 901.667,727.833 901.667,741.167 901,754.5C 900.623,755.942 899.79,756.942 898.5,757.5C 739.528,758.662 580.528,758.829 421.5,758C 420.255,757.209 418.922,756.709 417.5,756.5C 416.778,756.082 416.278,755.416 416,754.5C 415.333,741.167 415.333,727.833 416,714.5C 416.748,712.249 418.248,710.916 420.5,710.5 Z"/></g>
<g><path style="opacity:1" fill="#abb1c1" d="M 427.5,727.5 C 429.857,727.337 432.19,727.503 434.5,728C 437.167,730 437.167,732 434.5,734C 432.866,734.494 431.199,734.66 429.5,734.5C 429.785,736.288 429.452,737.955 428.5,739.5C 427.509,735.555 427.176,731.555 427.5,727.5 Z"/></g>
<g><path style="opacity:1" fill="#faf9f6" d="M 429.5,728.5 C 433.676,727.831 435.009,729.331 433.5,733C 432.207,733.49 430.873,733.657 429.5,733.5C 429.5,731.833 429.5,730.167 429.5,728.5 Z"/></g>
<g><path style="opacity:1" fill="#aeb5c5" d="M 446.5,738.5 C 447.935,737.904 449.602,737.904 451.5,738.5C 451.5,737.5 451.5,736.5 451.5,735.5C 447.324,736.169 445.991,734.669 447.5,731C 449.259,730.202 450.926,730.369 452.5,731.5C 451.313,731.554 449.98,731.887 448.5,732.5C 450.437,733.744 452.104,735.244 453.5,737C 451.782,739.713 449.448,740.213 446.5,738.5 Z"/></g>
<g><path style="opacity:1" fill="#aeb5c5" d="M 455.5,730.5 C 457.288,730.215 458.955,730.548 460.5,731.5C 459.313,731.554 457.98,731.887 456.5,732.5C 458.437,733.744 460.104,735.244 461.5,737C 459.661,739.898 457.327,740.231 454.5,738C 456.107,738.019 457.774,738.185 459.5,738.5C 459.5,737.5 459.5,736.5 459.5,735.5C 455.065,736.078 453.732,734.411 455.5,730.5 Z"/></g>
<g><path style="opacity:1" fill="#afb9d1" d="M 462.5,730.5 C 464.011,732.476 464.844,734.809 465,737.5C 465.681,735.105 466.515,732.772 467.5,730.5C 469.446,732.044 469.946,734.044 469,736.5C 468.667,735.167 468.333,733.833 468,732.5C 467.023,734.74 466.523,737.073 466.5,739.5C 465.5,739.5 464.5,739.5 463.5,739.5C 463.492,736.455 463.159,733.455 462.5,730.5 Z"/></g>
<g><path style="opacity:1" fill="#d4d4dc" d="M 494.5,727.5 C 495.645,731.311 495.812,735.311 495,739.5C 489.498,739.964 487.498,737.297 489,731.5C 490.667,730.167 492.333,730.167 494,731.5C 494.49,730.207 494.657,728.873 494.5,727.5 Z"/></g>
<g><path style="opacity:1" fill="#38508c" d="M 887.5,731.5 C 889.273,732.314 889.773,733.648 889,735.5C 888.209,734.255 887.709,732.922 887.5,731.5 Z"/></g>
<g><path style="opacity:1" fill="#bbbfcc" d="M 446.5,738.5 C 444.048,738.387 441.382,738.72 438.5,739.5C 438.5,737.5 438.5,735.5 438.5,733.5C 440.766,733.859 442.599,733.192 444,731.5C 443.97,734.361 444.803,736.695 446.5,738.5 Z"/></g>
<g><path style="opacity:1" fill="#494056" d="M 857.5,732.5 C 858.427,734.576 860.093,735.743 862.5,736C 859.074,737.238 857.408,736.071 857.5,732.5 Z"/></g>
<g><path style="opacity:1" fill="#5a89c6" d="M 891.5,738.5 C 891.523,736.073 892.023,733.74 893,731.5C 893.588,734.139 893.088,736.473 891.5,738.5 Z"/></g>
<g><path style="opacity:1" fill="#564457" d="M 865.5,731.5 C 866.434,732.568 866.768,733.901 866.5,735.5C 867.833,735.5 869.167,735.5 870.5,735.5C 871.258,730.248 871.925,730.415 872.5,736C 871.925,741.585 871.258,741.752 870.5,736.5C 869.167,736.5 867.833,736.5 866.5,736.5C 866.657,737.873 866.49,739.207 866,740.5C 865.502,737.518 865.335,734.518 865.5,731.5 Z"/></g>
<g><path style="opacity:1" fill="#c5cbd8" d="M 475.5,730.5 C 477.467,730.261 479.301,730.594 481,731.5C 481.769,734.099 481.602,736.599 480.5,739C 478.299,739.825 476.466,739.325 475,737.5C 474.297,735.071 474.463,732.738 475.5,730.5 Z"/></g>
<g><path style="opacity:1" fill="#645268" d="M 875.5,731.5 C 880.539,731.451 880.705,732.118 876,733.5C 875.257,735.441 875.424,737.274 876.5,739C 877.784,739.684 878.951,739.517 880,738.5C 880.333,736.833 880.667,735.167 881,733.5C 882.404,740.543 880.071,742.21 874,738.5C 873.167,735.829 873.667,733.496 875.5,731.5 Z"/></g>
<g><path style="opacity:1" fill="#4e4673" d="M 883.5,732.5 C 884.67,734.65 885.67,736.984 886.5,739.5C 886.167,739.833 885.833,740.167 885.5,740.5C 884.205,737.988 883.539,735.321 883.5,732.5 Z"/></g>
<g><path style="opacity:1" fill="#4f3f66" d="M 891.5,738.5 C 891.631,739.376 891.298,740.043 890.5,740.5C 889.386,739.277 889.219,737.944 890,736.5C 890.278,737.416 890.778,738.082 891.5,738.5 Z"/></g>
<g><path style="opacity:1" fill="#e6e6eb" d="M 417.5,756.5 C 418.922,756.709 420.255,757.209 421.5,758C 580.528,758.829 739.528,758.662 898.5,757.5C 898.082,758.222 897.416,758.722 896.5,759C 737.833,759.667 579.167,759.667 420.5,759C 419.058,758.623 418.058,757.79 417.5,756.5 Z"/></g>
<g><path style="opacity:1" fill="#f8d5c4" d="M 424.5,787.5 C 431.486,787.331 433.153,790.164 429.5,796C 427.559,796.743 425.726,796.576 424,795.5C 423.278,792.739 423.445,790.073 424.5,787.5 Z"/></g>
<g><path style="opacity:1" fill="#fdf5c3" d="M 459.5,788.5 C 463.991,787.259 465.324,787.259 463.5,788.5C 463.167,799.167 462.833,799.167 462.5,788.5C 461.5,788.5 460.5,788.5 459.5,788.5 Z"/></g>
<g><path style="opacity:1" fill="#e8600e" d="M 425.5,788.5 C 429.473,789.075 430.473,791.242 428.5,795C 427.216,795.684 426.049,795.517 425,794.5C 424.322,792.402 424.489,790.402 425.5,788.5 Z"/></g>
<g><path style="opacity:1" fill="#e9651e" d="M 452.5,788.5 C 456.314,788.651 457.981,790.651 457.5,794.5C 455.5,795.833 453.5,795.833 451.5,794.5C 451.325,792.379 451.659,790.379 452.5,788.5 Z"/></g>
<g><path style="opacity:1" fill="#f9d8c7" d="M 415.5,787.5 C 417.527,787.338 419.527,787.505 421.5,788C 420.207,788.49 418.873,788.657 417.5,788.5C 417.5,789.5 417.5,790.5 417.5,791.5C 422.833,791.833 422.833,792.167 417.5,792.5C 417.762,793.978 417.429,795.311 416.5,796.5C 415.516,793.572 415.183,790.572 415.5,787.5 Z"/></g>
<g><path style="opacity:1" fill="#f3d7de" d="M 452.5,788.5 C 451.659,790.379 451.325,792.379 451.5,794.5C 450.853,793.726 450.52,792.726 450.5,791.5C 450.64,789.97 451.307,788.97 452.5,788.5 Z"/></g>
<g><path style="opacity:1" fill="#f9e7d2" d="M 452.5,788.5 C 454.489,787.113 456.322,787.447 458,789.5C 458.78,791.387 458.613,793.054 457.5,794.5C 457.981,790.651 456.314,788.651 452.5,788.5 Z"/></g>
<g><path style="opacity:1" fill="#fad5c4" d="M 432.5,787.5 C 434.527,787.338 436.527,787.505 438.5,788C 436.866,788.494 435.199,788.66 433.5,788.5C 433.5,789.5 433.5,790.5 433.5,791.5C 435.167,791.5 436.833,791.5 438.5,791.5C 438.815,793.226 438.981,794.893 439,796.5C 436.834,791.464 435.001,791.464 433.5,796.5C 432.516,793.572 432.183,790.572 432.5,787.5 Z"/></g>
<g><path style="opacity:1" fill="#f8d1bf" d="M 442.5,787.5 C 444.75,787.181 446.75,787.681 448.5,789C 442.942,787.564 441.276,789.564 443.5,795C 444.784,795.684 445.951,795.517 447,794.5C 447.456,793.256 446.956,792.423 445.5,792C 446.793,791.51 448.127,791.343 449.5,791.5C 449.252,795.968 446.918,797.468 442.5,796C 441.214,793.168 441.214,790.335 442.5,787.5 Z"/></g>
<g><path style="opacity:1" fill="#fbd5ca" d="M 451.5,794.5 C 453.5,795.833 455.5,795.833 457.5,794.5C 456.866,795.947 455.699,796.613 454,796.5C 452.624,796.316 451.791,795.649 451.5,794.5 Z"/></g>
<g><path style="opacity:1" fill="#f8cfc0" d="M 415.5,805.5 C 417.792,805.244 419.959,805.577 422,806.5C 423.177,810.492 421.677,812.158 417.5,811.5C 417.719,812.675 417.386,813.675 416.5,814.5C 415.516,811.572 415.183,808.572 415.5,805.5 Z"/></g>
<g><path style="opacity:1" fill="#f8d8cd" d="M 431.5,805.5 C 433.75,805.181 435.75,805.681 437.5,807C 431.014,806.585 430.848,807.752 437,810.5C 437.684,811.784 437.517,812.951 436.5,814C 434.741,814.798 433.074,814.631 431.5,813.5C 433.14,813.847 434.807,813.347 436.5,812C 435.109,810.98 433.609,810.147 432,809.5C 431.51,808.207 431.343,806.873 431.5,805.5 Z"/></g>
<g><path style="opacity:1" fill="#f8d8cd" d="M 439.5,805.5 C 441.75,805.181 443.75,805.681 445.5,807C 439.014,806.585 438.848,807.752 445,810.5C 445.684,811.784 445.517,812.951 444.5,814C 442.741,814.798 441.074,814.631 439.5,813.5C 441.14,813.847 442.807,813.347 444.5,812C 443.109,810.98 441.609,810.147 440,809.5C 439.51,808.207 439.343,806.873 439.5,805.5 Z"/></g>
<g><path style="opacity:1" fill="#f8d5c4" d="M 459.5,805.5 C 466.486,805.331 468.153,808.164 464.5,814C 462.559,814.743 460.726,814.576 459,813.5C 458.278,810.739 458.445,808.073 459.5,805.5 Z"/></g>
<g><path style="opacity:1" fill="#f5cac1" d="M 485.5,805.5 C 490.923,805.603 491.756,807.603 488,811.5C 487.493,810.004 487.993,808.837 489.5,808C 487.863,806.049 486.363,806.216 485,808.5C 484.53,807.423 484.697,806.423 485.5,805.5 Z"/></g>
<g><path style="opacity:1" fill="#e6580d" d="M 417.5,806.5 C 418.5,806.5 419.5,806.5 420.5,806.5C 420.5,807.833 420.5,809.167 420.5,810.5C 419.5,810.5 418.5,810.5 417.5,810.5C 417.5,809.167 417.5,807.833 417.5,806.5 Z"/></g>
<g><path style="opacity:1" fill="#f6c9b4" d="M 425.5,805.5 C 426.376,805.369 427.043,805.702 427.5,806.5C 428.305,808.915 429.305,811.249 430.5,813.5C 430.167,813.833 429.833,814.167 429.5,814.5C 428.614,813.675 428.281,812.675 428.5,811.5C 426.019,811.323 424.186,812.323 423,814.5C 423.209,811.39 424.042,808.39 425.5,805.5 Z"/></g>
<g><path style="opacity:1" fill="#e8600e" d="M 460.5,806.5 C 464.473,807.075 465.473,809.242 463.5,813C 462.216,813.684 461.049,813.517 460,812.5C 459.322,810.402 459.489,808.402 460.5,806.5 Z"/></g>
<g><path style="opacity:1" fill="#f6c8b7" d="M 453.5,812.5 C 452.71,811.391 452.21,810.058 452,808.5C 451.457,810.631 450.624,812.631 449.5,814.5C 447.571,811.78 446.737,808.78 447,805.5C 448.67,810.694 450.17,810.694 451.5,805.5C 453.171,807.51 453.838,809.843 453.5,812.5 Z"/></g>
<g><path style="opacity:1" fill="#f5c9c2" d="M 453.5,812.5 C 454.641,810.333 455.641,808 456.5,805.5C 456.991,808.56 456.324,811.56 454.5,814.5C 453.702,814.043 453.369,813.376 453.5,812.5 Z"/></g>
<g><path style="opacity:1" fill="#f7e1e2" d="M 476.5,805.5 C 483.486,805.331 485.153,808.164 481.5,814C 479.866,814.494 478.199,814.66 476.5,814.5C 476.5,811.5 476.5,808.5 476.5,805.5 Z"/></g>
<g><path style="opacity:1" fill="#e96512" d="M 477.5,806.5 C 482.493,806.997 483.493,809.164 480.5,813C 479.552,813.483 478.552,813.649 477.5,813.5C 477.5,811.167 477.5,808.833 477.5,806.5 Z"/></g>
<g><path style="opacity:1" fill="#ea6325" d="M 425.5,807.5 C 427.332,808.14 427.665,809.14 426.5,810.5C 425.614,809.675 425.281,808.675 425.5,807.5 Z"/></g>
<g><path style="opacity:1" fill="#fad5c4" d="M 467.5,805.5 C 469.527,805.338 471.527,805.505 473.5,806C 471.866,806.494 470.199,806.66 468.5,806.5C 468.5,807.5 468.5,808.5 468.5,809.5C 470.167,809.5 471.833,809.5 473.5,809.5C 473.815,811.226 473.981,812.893 474,814.5C 471.834,809.464 470.001,809.464 468.5,814.5C 467.516,811.572 467.183,808.572 467.5,805.5 Z"/></g>
<g><path style="opacity:1" fill="#000000" d="M 420.5,843.5 C 578.834,843.333 737.167,843.5 895.5,844C 898.232,844.398 900.065,845.898 901,848.5C 901.667,860.833 901.667,873.167 901,885.5C 900.5,888.667 898.667,890.5 895.5,891C 737.167,891.667 578.833,891.667 420.5,891C 417.898,890.065 416.398,888.232 416,885.5C 415.333,873.167 415.333,860.833 416,848.5C 417.025,846.313 418.525,844.646 420.5,843.5 Z"/></g>
<g><path style="opacity:1" fill="#c4f3fd" d="M 639.5,862.5 C 639.5,865.167 639.5,867.833 639.5,870.5C 641.415,870.216 643.081,870.549 644.5,871.5C 642.5,871.5 640.5,871.5 638.5,871.5C 638.19,868.287 638.523,865.287 639.5,862.5 Z"/></g>
<g><path style="opacity:1" fill="#dbb37e" d="M 639.5,862.5 C 640.468,864.607 640.802,866.941 640.5,869.5C 642.167,869.5 643.833,869.5 645.5,869.5C 645.672,870.492 645.338,871.158 644.5,871.5C 643.081,870.549 641.415,870.216 639.5,870.5C 639.5,867.833 639.5,865.167 639.5,862.5 Z"/></g>
<g><path style="opacity:1" fill="#cf8e58" d="M 668.5,862.5 C 669.765,863.514 670.431,865.014 670.5,867C 670.167,868.5 669.833,870 669.5,871.5C 668.516,868.572 668.183,865.572 668.5,862.5 Z"/></g>
<g><path style="opacity:1" fill="#dbc9b2" d="M 671.5,862.5 C 674.05,862.561 675.55,863.894 676,866.5C 676.219,865.062 676.719,863.729 677.5,862.5C 678.484,865.428 678.817,868.428 678.5,871.5C 677.5,871.5 676.5,871.5 675.5,871.5C 674.521,864.878 673.521,864.878 672.5,871.5C 671.516,868.572 671.183,865.572 671.5,862.5 Z"/></g>
<g><path style="opacity:1" fill="#dad1c5" d="M 645.5,869.5 C 645.331,862.514 648.164,860.847 654,864.5C 654.475,871.584 651.642,873.251 645.5,869.5 Z"/></g>
<g><path style="opacity:1" fill="#291c22" d="M 647.5,864.5 C 649.167,864.5 650.833,864.5 652.5,864.5C 653.167,868.5 651.5,870.167 647.5,869.5C 647.5,867.833 647.5,866.167 647.5,864.5 Z"/></g>
<g><path style="opacity:1" fill="#e1d4c4" d="M 656.5,862.5 C 658.467,862.261 660.301,862.594 662,863.5C 662.667,864.167 662.667,864.833 662,865.5C 660.644,864.62 659.144,864.286 657.5,864.5C 657.5,866.167 657.5,867.833 657.5,869.5C 658.978,869.762 660.311,869.429 661.5,868.5C 660.975,867.808 660.308,867.308 659.5,867C 660.793,866.51 662.127,866.343 663.5,866.5C 663.252,870.968 660.918,872.468 656.5,871C 655.214,868.168 655.214,865.335 656.5,862.5 Z"/></g>
<g><path style="opacity:1" fill="#fbe1d2" d="M 754.5,923.5 C 759.993,922.178 762.493,924.178 762,929.5C 755.486,934.817 754.986,934.15 760.5,927.5C 758.295,924.947 755.962,924.947 753.5,927.5C 753.167,927.167 752.833,926.833 752.5,926.5C 753.193,925.482 753.859,924.482 754.5,923.5 Z"/></g>
<g><path style="opacity:1" fill="#faebdd" d="M 583.5,927.5 C 582.907,930.8 582.24,934.134 581.5,937.5C 580.167,933.833 580.167,930.167 581.5,926.5C 582.183,926.863 582.85,927.196 583.5,927.5 Z"/></g>
<g><path style="opacity:1" fill="#fbeadb" d="M 730.5,936.5 C 729.116,937.801 727.616,937.801 726,936.5C 725.176,933.118 725.343,929.784 726.5,926.5C 727.487,929.768 727.82,933.102 727.5,936.5C 728.5,936.5 729.5,936.5 730.5,936.5 Z"/></g>
<g><path style="opacity:1" fill="#f7d8df" d="M 730.5,936.5 C 731.093,933.2 731.76,929.866 732.5,926.5C 733.833,930.167 733.833,933.833 732.5,937.5C 731.817,937.137 731.15,936.804 730.5,936.5 Z"/></g>
<g><path style="opacity:1" fill="#fbd9cb" d="M 554.5,923.5 C 563.823,921.658 567.656,925.325 566,934.5C 565.167,935.333 564.333,936.167 563.5,937C 560.518,937.498 557.518,937.665 554.5,937.5C 554.5,932.833 554.5,928.167 554.5,923.5 Z"/></g>
<g><path style="opacity:1" fill="#e55604" d="M 557.5,925.5 C 564.628,925.706 566.294,928.873 562.5,935C 560.866,935.494 559.199,935.66 557.5,935.5C 557.5,932.167 557.5,928.833 557.5,925.5 Z"/></g>
<g><path style="opacity:1" fill="#f8d9dc" d="M 583.5,927.5 C 584.884,926.199 586.384,926.199 588,927.5C 588.824,930.882 588.657,934.216 587.5,937.5C 586.513,934.232 586.18,930.898 586.5,927.5C 585.5,927.5 584.5,927.5 583.5,927.5 Z"/></g>
<g><path style="opacity:1" fill="#fbebd7" d="M 596.5,923.5 C 597.186,924.848 598.186,926.015 599.5,927C 596.881,930.085 596.881,933.252 599.5,936.5C 598.349,937.731 597.183,937.731 596,936.5C 595.788,933.242 595.288,930.076 594.5,927C 595.305,925.887 595.972,924.721 596.5,923.5 Z"/></g>
<g><path style="opacity:1" fill="#fadfd5" d="M 606.5,922.5 C 608.117,923.589 608.95,925.256 609,927.5C 610.667,926.167 612.333,926.167 614,927.5C 614.824,930.882 614.657,934.216 613.5,937.5C 612.516,934.572 612.183,931.572 612.5,928.5C 611.167,928.5 609.833,928.5 608.5,928.5C 608.817,931.572 608.484,934.572 607.5,937.5C 606.506,932.544 606.173,927.544 606.5,922.5 Z"/></g>
<g><path style="opacity:1" fill="#fbe2da" d="M 618.5,926.5 C 620.792,926.244 622.959,926.577 625,927.5C 625.333,930.167 625.667,932.833 626,935.5C 626.5,936 627,936.5 627.5,937C 624.332,936.997 621.165,936.83 618,936.5C 616.595,931.731 618.428,929.398 623.5,929.5C 621.865,928.319 620.198,928.319 618.5,929.5C 617.438,928.575 617.438,927.575 618.5,926.5 Z"/></g>
<g><path style="opacity:1" fill="#f9e2e3" d="M 748.5,923.5 C 749.186,924.848 750.186,926.015 751.5,927C 748.881,930.085 748.881,933.252 751.5,936.5C 750.349,937.731 749.183,937.731 748,936.5C 747.788,933.242 747.288,930.076 746.5,927C 747.305,925.887 747.972,924.721 748.5,923.5 Z"/></g>
<g><path style="opacity:1" fill="#f9dcda" d="M 695.5,926.5 C 698.346,926.03 700.679,926.863 702.5,929C 700.249,928.793 697.915,928.627 695.5,928.5C 695.244,930.792 695.577,932.959 696.5,935C 698.557,935.305 700.557,935.305 702.5,935C 697.78,938.992 694.78,937.992 693.5,932C 693.758,929.991 694.425,928.157 695.5,926.5 Z"/></g>
<g><path style="opacity:1" fill="#f9dcda" d="M 705.5,926.5 C 708.346,926.03 710.679,926.863 712.5,929C 710.249,928.793 707.915,928.627 705.5,928.5C 705.244,930.792 705.577,932.959 706.5,935C 708.557,935.305 710.557,935.305 712.5,935C 707.78,938.992 704.78,937.992 703.5,932C 703.758,929.991 704.425,928.157 705.5,926.5 Z"/></g>
<g><path style="opacity:1" fill="#fcece6" d="M 647.5,931.5 C 644.833,931.5 642.167,931.5 639.5,931.5C 639.263,932.791 639.596,933.791 640.5,934.5C 642.564,935.305 644.564,935.638 646.5,935.5C 644.085,938.128 641.585,938.128 639,935.5C 636.832,929.021 638.999,926.188 645.5,927C 647.037,928.11 647.703,929.61 647.5,931.5 Z"/></g>
<g><path style="opacity:1" fill="#e96924" d="M 640.5,928.5 C 642.288,928.215 643.955,928.548 645.5,929.5C 644.667,929.833 643.833,930.167 643,930.5C 641.624,930.316 640.791,929.649 640.5,928.5 Z"/></g>
<g><path style="opacity:1" fill="#f9eae2" d="M 669.5,927.5 C 668.907,930.8 668.24,934.134 667.5,937.5C 666.167,933.833 666.167,930.167 667.5,926.5C 668.183,926.863 668.85,927.196 669.5,927.5 Z"/></g>
<g><path style="opacity:1" fill="#fcecdb" d="M 669.5,927.5 C 671.489,926.113 673.322,926.447 675,928.5C 674.996,940.5 674.329,940.5 673,928.5C 671.989,927.663 670.822,927.33 669.5,927.5 Z"/></g>
<g><path style="opacity:1" fill="#fbe7df" d="M 684.5,926.5 C 687.044,926.104 689.211,926.771 691,928.5C 691.218,931.426 691.718,934.26 692.5,937C 689.385,937.337 686.218,937.17 683,936.5C 682.438,931.888 684.605,929.554 689.5,929.5C 687.865,928.319 686.198,928.319 684.5,929.5C 683.438,928.575 683.438,927.575 684.5,926.5 Z"/></g>
<g><path style="opacity:1" fill="#f9eae2" d="M 739.5,927.5 C 738.907,930.8 738.24,934.134 737.5,937.5C 736.167,933.833 736.167,930.167 737.5,926.5C 738.183,926.863 738.85,927.196 739.5,927.5 Z"/></g>
<g><path style="opacity:1" fill="#fcecdb" d="M 739.5,927.5 C 741.489,926.113 743.322,926.447 745,928.5C 744.996,940.5 744.329,940.5 743,928.5C 741.989,927.663 740.822,927.33 739.5,927.5 Z"/></g>
<g><path style="opacity:1" fill="#fadfd5" d="M 570.5,926.5 C 578.629,926.294 580.629,929.794 576.5,937C 568.568,937.326 566.568,933.826 570.5,926.5 Z"/></g>
<g><path style="opacity:1" fill="#e9661e" d="M 571.5,928.5 C 573.167,928.5 574.833,928.5 576.5,928.5C 576.662,930.527 576.495,932.527 576,934.5C 570.651,935.895 569.151,933.895 571.5,928.5 Z"/></g>
<g><path style="opacity:1" fill="#f3a468" d="M 647.5,931.5 C 644.841,931.917 642.508,932.917 640.5,934.5C 639.596,933.791 639.263,932.791 639.5,931.5C 642.167,931.5 644.833,931.5 647.5,931.5 Z"/></g>
<g><path style="opacity:1" fill="#fadfd5" d="M 715.5,926.5 C 723.629,926.294 725.629,929.794 721.5,937C 713.568,937.326 711.568,933.826 715.5,926.5 Z"/></g>
<g><path style="opacity:1" fill="#e9661e" d="M 716.5,928.5 C 718.167,928.5 719.833,928.5 721.5,928.5C 721.662,930.527 721.495,932.527 721,934.5C 715.651,935.895 714.151,933.895 716.5,928.5 Z"/></g>
<g><path style="opacity:1" fill="#e8621f" d="M 620.5,931.5 C 621.5,931.5 622.5,931.5 623.5,931.5C 623.5,932.833 623.5,934.167 623.5,935.5C 622.167,935.5 620.833,935.5 619.5,935.5C 619.433,934.041 619.766,932.708 620.5,931.5 Z"/></g>
<g><path style="opacity:1" fill="#faddd7" d="M 656.5,926.5 C 658.792,926.244 660.959,926.577 663,927.5C 663.333,930.167 663.667,932.833 664,935.5C 664.5,936 665,936.5 665.5,937C 662.024,937.218 658.524,937.051 655,936.5C 654.438,931.888 656.605,929.554 661.5,929.5C 659.865,928.319 658.198,928.319 656.5,929.5C 655.438,928.575 655.438,927.575 656.5,926.5 Z"/></g>
<g><path style="opacity:1" fill="#eb6f22" d="M 657.5,931.5 C 658.833,931.5 660.167,931.5 661.5,931.5C 661.616,934.91 659.95,936.244 656.5,935.5C 656.433,934.041 656.766,932.708 657.5,931.5 Z"/></g>
<g><path style="opacity:1" fill="#e96925" d="M 685.5,931.5 C 686.833,931.5 688.167,931.5 689.5,931.5C 689.616,934.91 687.95,936.244 684.5,935.5C 684.433,934.041 684.766,932.708 685.5,931.5 Z"/></g>
<g><path style="opacity:1" fill="#f9ddd7" d="M 627.5,926.5 C 628.496,926.414 629.329,926.748 630,927.5C 630.92,930.101 631.587,932.768 632,935.5C 632.875,932.372 634.042,929.372 635.5,926.5C 635.833,927 636.167,927.5 636.5,928C 634.993,931.021 633.993,934.188 633.5,937.5C 632.5,937.5 631.5,937.5 630.5,937.5C 629.703,933.777 628.703,930.11 627.5,926.5 Z"/></g>
<g><path style="opacity:1" fill="#fcd5c2" d="M 755.5,935.5 C 756.675,935.281 757.675,935.614 758.5,936.5C 756.948,937.798 755.948,937.465 755.5,935.5 Z"/></g>
<g><path style="opacity:0.004" fill="#fefffe" d="M -0.5,1109.5 C 0.5,1109.5 1.5,1109.5 2.5,1109.5C 2.5,1112.5 2.5,1115.5 2.5,1118.5C 1.5,1118.5 0.5,1118.5 -0.5,1118.5C -0.5,1115.5 -0.5,1112.5 -0.5,1109.5 Z"/></g>
<g><path style="opacity:0.016" fill="#7f807f" d="M 9.5,1109.5 C 11.7658,1114.79 13.5992,1120.46 15,1126.5C 22.1998,1145.7 35.0331,1159.87 53.5,1169C 61.6998,1171.78 69.6998,1174.62 77.5,1177.5C 74.5,1177.5 71.5,1177.5 68.5,1177.5C 59.5938,1174.22 50.9272,1170.05 42.5,1165C 23.6656,1151.17 12.6656,1132.67 9.5,1109.5 Z"/></g>
<g><path style="opacity:0.016" fill="#7f807f" d="M 1291.5,1109.5 C 1291.82,1112.57 1291.48,1115.57 1290.5,1118.5C 1286.8,1130.43 1281.3,1141.43 1274,1151.5C 1261.97,1163.41 1248.14,1172.08 1232.5,1177.5C 1229.5,1177.5 1226.5,1177.5 1223.5,1177.5C 1228.79,1175.23 1234.46,1173.4 1240.5,1172C 1259.7,1164.8 1273.87,1151.97 1283,1133.5C 1285.78,1125.3 1288.62,1117.3 1291.5,1109.5 Z"/></g>
<g><path style="opacity:0.004" fill="#fefffe" d="M 1301.5,1109.5 C 1301.5,1112.5 1301.5,1115.5 1301.5,1118.5C 1300.5,1118.5 1299.5,1118.5 1298.5,1118.5C 1298.5,1115.5 1298.5,1112.5 1298.5,1109.5C 1299.5,1109.5 1300.5,1109.5 1301.5,1109.5 Z"/></g>
<g><path style="opacity:0.004" fill="#000000" d="M -0.5,1118.5 C 0.5,1118.5 1.5,1118.5 2.5,1118.5C 2.5,1121.17 2.5,1123.83 2.5,1126.5C 2.5,1128.17 2.5,1129.83 2.5,1131.5C 3.5,1131.5 4.5,1131.5 5.5,1131.5C 5.5,1132.5 5.5,1133.5 5.5,1134.5C 5.15684,1136.48 5.82351,1137.82 7.5,1138.5C 7.5,1138.83 7.5,1139.17 7.5,1139.5C 7.15684,1141.48 7.82351,1142.82 9.5,1143.5C 9.28519,1145.18 9.95186,1146.18 11.5,1146.5C 18.1667,1159.17 27.8333,1168.83 40.5,1175.5C 40.5,1176.17 40.5,1176.83 40.5,1177.5C 35.8333,1177.5 31.1667,1177.5 26.5,1177.5C 20.301,1171.51 14.301,1165.17 8.5,1158.5C 6.44772,1156.2 5.44772,1153.54 5.5,1150.5C 4.5,1150.5 3.5,1150.5 2.5,1150.5C 2.5,1148.17 2.5,1145.83 2.5,1143.5C 1.5,1143.5 0.5,1143.5 -0.5,1143.5C -0.5,1135.17 -0.5,1126.83 -0.5,1118.5 Z"/></g>
<g><path style="opacity:0.004" fill="#000000" d="M 1298.5,1118.5 C 1299.5,1118.5 1300.5,1118.5 1301.5,1118.5C 1301.5,1126.83 1301.5,1135.17 1301.5,1143.5C 1300.5,1143.5 1299.5,1143.5 1298.5,1143.5C 1298.5,1145.83 1298.5,1148.17 1298.5,1150.5C 1297.5,1150.5 1296.5,1150.5 1295.5,1150.5C 1295.55,1153.54 1294.55,1156.2 1292.5,1158.5C 1286.7,1165.17 1280.7,1171.51 1274.5,1177.5C 1269.83,1177.5 1265.17,1177.5 1260.5,1177.5C 1260.5,1176.83 1260.5,1176.17 1260.5,1175.5C 1273.17,1168.83 1282.83,1159.17 1289.5,1146.5C 1291.05,1146.18 1291.71,1145.18 1291.5,1143.5C 1293.18,1142.82 1293.84,1141.48 1293.5,1139.5C 1293.5,1139.17 1293.5,1138.83 1293.5,1138.5C 1295.18,1137.82 1295.84,1136.48 1295.5,1134.5C 1295.5,1133.5 1295.5,1132.5 1295.5,1131.5C 1296.5,1131.5 1297.5,1131.5 1298.5,1131.5C 1298.5,1129.83 1298.5,1128.17 1298.5,1126.5C 1298.5,1123.83 1298.5,1121.17 1298.5,1118.5 Z"/></g>
<g><path style="opacity:0.004" fill="#fefffe" d="M 2.5,1126.5 C 3.5,1126.5 4.5,1126.5 5.5,1126.5C 5.5,1128.17 5.5,1129.83 5.5,1131.5C 4.5,1131.5 3.5,1131.5 2.5,1131.5C 2.5,1129.83 2.5,1128.17 2.5,1126.5 Z"/></g>
<g><path style="opacity:0.671" fill="#303030" d="M 55.5,1125.5 C 452.137,1126.83 848.804,1126.83 1245.5,1125.5C 1245.39,1126.12 1245.06,1126.62 1244.5,1127C 1046.33,1127.17 848.167,1127.33 650,1127.5C 451.499,1127.5 253.332,1126.83 55.5,1125.5 Z"/></g>
<g><path style="opacity:0.004" fill="#fefffe" d="M 1298.5,1126.5 C 1298.5,1128.17 1298.5,1129.83 1298.5,1131.5C 1297.5,1131.5 1296.5,1131.5 1295.5,1131.5C 1295.5,1129.83 1295.5,1128.17 1295.5,1126.5C 1296.5,1126.5 1297.5,1126.5 1298.5,1126.5 Z"/></g>
<g><path style="opacity:0.004" fill="#fefffe" d="M 5.5,1134.5 C 7.17649,1135.18 7.84316,1136.52 7.5,1138.5C 5.82351,1137.82 5.15684,1136.48 5.5,1134.5 Z"/></g>
<g><path style="opacity:0.004" fill="#fefffe" d="M 1295.5,1134.5 C 1295.84,1136.48 1295.18,1137.82 1293.5,1138.5C 1293.16,1136.52 1293.82,1135.18 1295.5,1134.5 Z"/></g>
<g><path style="opacity:0.004" fill="#fefffe" d="M 7.5,1139.5 C 9.17649,1140.18 9.84316,1141.52 9.5,1143.5C 7.82351,1142.82 7.15684,1141.48 7.5,1139.5 Z"/></g>
<g><path style="opacity:0.004" fill="#fefffe" d="M 1293.5,1139.5 C 1293.84,1141.48 1293.18,1142.82 1291.5,1143.5C 1291.16,1141.52 1291.82,1140.18 1293.5,1139.5 Z"/></g>
<g><path style="opacity:0.004" fill="#fefffe" d="M 11.5,1146.5 C 16.5721,1152.75 21.9055,1158.92 27.5,1165C 32.3396,1168.06 36.6729,1171.56 40.5,1175.5C 27.8333,1168.83 18.1667,1159.17 11.5,1146.5 Z"/></g>
<g><path style="opacity:0.004" fill="#fefffe" d="M 1289.5,1146.5 C 1282.83,1159.17 1273.17,1168.83 1260.5,1175.5C 1266.75,1170.43 1272.92,1165.09 1279,1159.5C 1282.06,1154.66 1285.56,1150.33 1289.5,1146.5 Z"/></g>
<g><path style="opacity:0.035" fill="#707170" d="M 88.5,1169.5 C 98.5055,1169.82 108.505,1170.32 118.5,1171C 473.167,1171.67 827.833,1171.67 1182.5,1171C 1192.49,1170.32 1202.49,1169.82 1212.5,1169.5C 1206.4,1171.02 1200.07,1171.85 1193.5,1172C 831.5,1172.67 469.5,1172.67 107.5,1172C 100.932,1171.85 94.599,1171.02 88.5,1169.5 Z"/></g>
<g><path style="opacity:0.024" fill="#545554" d="M 94.5,1175.5 C 465.167,1175.5 835.833,1175.5 1206.5,1175.5C 1206.5,1176.17 1206.5,1176.83 1206.5,1177.5C 835.833,1177.5 465.167,1177.5 94.5,1177.5C 94.5,1176.83 94.5,1176.17 94.5,1175.5 Z"/></g>
</svg>
