<?xml version="1.0" encoding="UTF-8"?>
<!DOCTYPE svg PUBLIC "-//W3C//DTD SVG 1.1//EN" "http://www.w3.org/Graphics/SVG/1.1/DTD/svg11.dtd">
<svg xmlns="http://www.w3.org/2000/svg" version="1.1" width="1302px" height="1178px" style="shape-rendering:geometricPrecision; text-rendering:geometricPrecision; image-rendering:optimizeQuality; fill-rule:evenodd; clip-rule:evenodd" xmlns:xlink="http://www.w3.org/1999/xlink">
<g><path style="opacity:0.004" fill="#000000" d="M 43.5,-0.5 C 51.8333,-0.5 60.1667,-0.5 68.5,-0.5C 68.5,0.5 68.5,1.5 68.5,2.5C 65.8333,2.5 63.1667,2.5 60.5,2.5C 58.8333,2.5 57.1667,2.5 55.5,2.5C 55.5,3.5 55.5,4.5 55.5,5.5C 54.5,5.5 53.5,5.5 52.5,5.5C 50.5168,5.15684 49.1834,5.82351 48.5,7.5C 48.1667,7.5 47.8333,7.5 47.5,7.5C 45.5168,7.15684 44.1834,7.82351 43.5,9.5C 41.8212,9.28519 40.8212,9.95186 40.5,11.5C 27.8333,18.1667 18.1667,27.8333 11.5,40.5C 9.95186,40.8212 9.28519,41.8212 9.5,43.5C 7.82351,44.1834 7.15684,45.5168 7.5,47.5C 7.5,47.8333 7.5,48.1667 7.5,48.5C 5.82351,49.1834 5.15684,50.5168 5.5,52.5C 5.5,53.5 5.5,54.5 5.5,55.5C 4.5,55.5 3.5,55.5 2.5,55.5C 2.5,57.1667 2.5,58.8333 2.5,60.5C 2.5,63.1667 2.5,65.8333 2.5,68.5C 1.5,68.5 0.5,68.5 -0.5,68.5C -0.5,60.1667 -0.5,51.8333 -0.5,43.5C 0.5,43.5 1.5,43.5 2.5,43.5C 2.5,41.1667 2.5,38.8333 2.5,36.5C 3.5,36.5 4.5,36.5 5.5,36.5C 5.21478,34.712 5.54811,33.0453 6.5,31.5C 13.1629,23.1578 20.4963,15.4912 28.5,8.5C 30.7961,6.44772 33.4628,5.44772 36.5,5.5C 36.5,4.5 36.5,3.5 36.5,2.5C 38.8333,2.5 41.1667,2.5 43.5,2.5C 43.5,1.5 43.5,0.5 43.5,-0.5 Z"/></g>
<g><path style="opacity:0.004" fill="#fefffe" d="M 68.5,-0.5 C 71.5,-0.5 74.5,-0.5 77.5,-0.5C 77.5,0.5 77.5,1.5 77.5,2.5C 74.5,2.5 71.5,2.5 68.5,2.5C 68.5,1.5 68.5,0.5 68.5,-0.5 Z"/></g>
<g><path style="opacity:0.008" fill="#808080" d="M 77.5,-0.5 C 459.5,-0.5 841.5,-0.5 1223.5,-0.5C 1223.5,0.5 1223.5,1.5 1223.5,2.5C 1226.5,2.5 1229.5,2.5 1232.5,2.5C 1235.17,2.5 1237.83,2.5 1240.5,2.5C 1240.5,3.5 1240.5,4.5 1240.5,5.5C 1242.17,5.5 1243.83,5.5 1245.5,5.5C 1246.5,5.5 1247.5,5.5 1248.5,5.5C 1249.18,7.17649 1250.52,7.84316 1252.5,7.5C 1252.83,7.5 1253.17,7.5 1253.5,7.5C 1254.18,9.17649 1255.52,9.84316 1257.5,9.5C 1259.18,9.28519 1260.18,9.95186 1260.5,11.5C 1264.33,15.4413 1268.66,18.9413 1273.5,22C 1279.09,28.0835 1284.43,34.2502 1289.5,40.5C 1291.05,40.8212 1291.71,41.8212 1291.5,43.5C 1291.16,45.4832 1291.82,46.8166 1293.5,47.5C 1293.5,47.8333 1293.5,48.1667 1293.5,48.5C 1293.16,50.4832 1293.82,51.8166 1295.5,52.5C 1295.5,53.5 1295.5,54.5 1295.5,55.5C 1295.5,57.1667 1295.5,58.8333 1295.5,60.5C 1296.5,60.5 1297.5,60.5 1298.5,60.5C 1298.5,63.1667 1298.5,65.8333 1298.5,68.5C 1298.5,71.5 1298.5,74.5 1298.5,77.5C 1299.5,77.5 1300.5,77.5 1301.5,77.5C 1301.5,421.5 1301.5,765.5 1301.5,1109.5C 1300.5,1109.5 1299.5,1109.5 1298.5,1109.5C 1298.5,1112.5 1298.5,1115.5 1298.5,1118.5C 1298.5,1121.17 1298.5,1123.83 1298.5,1126.5C 1297.5,1126.5 1296.5,1126.5 1295.5,1126.5C 1295.5,1128.17 1295.5,1129.83 1295.5,1131.5C 1295.5,1132.5 1295.5,1133.5 1295.5,1134.5C 1293.82,1135.18 1293.16,1136.52 1293.5,1138.5C 1293.5,1138.83 1293.5,1139.17 1293.5,1139.5C 1291.82,1140.18 1291.16,1141.52 1291.5,1143.5C 1291.71,1145.18 1291.05,1146.18 1289.5,1146.5C 1285.56,1150.33 1282.06,1154.66 1279,1159.5C 1272.92,1165.09 1266.75,1170.43 1260.5,1175.5C 1260.5,1176.17 1260.5,1176.83 1260.5,1177.5C 1255.5,1177.5 1250.5,1177.5 1245.5,1177.5C 1268.19,1167.21 1283.86,1150.21 1292.5,1126.5C 1294.81,1118.66 1295.81,1110.66 1295.5,1102.5C 1296.5,1102.5 1297.5,1102.5 1298.5,1102.5C 1298.5,763.167 1298.5,423.833 1298.5,84.5C 1297.5,84.5 1296.5,84.5 1295.5,84.5C 1294.59,54.1111 1281.26,30.9445 1255.5,15C 1243.38,8.22098 1230.38,5.05431 1216.5,5.5C 1216.5,4.5 1216.5,3.5 1216.5,2.5C 839.167,2.5 461.833,2.5 84.5,2.5C 84.5,3.5 84.5,4.5 84.5,5.5C 54.1111,6.40874 30.9445,19.7421 15,45.5C 8.22098,57.6162 5.05431,70.6162 5.5,84.5C 4.5,84.5 3.5,84.5 2.5,84.5C 2.5,423.833 2.5,763.167 2.5,1102.5C 3.5,1102.5 4.5,1102.5 5.5,1102.5C 6.20016,1128.47 16.5335,1149.63 36.5,1166C 42.7046,1170.31 49.0379,1174.15 55.5,1177.5C 50.5,1177.5 45.5,1177.5 40.5,1177.5C 40.5,1176.83 40.5,1176.17 40.5,1175.5C 36.6729,1171.56 32.3396,1168.06 27.5,1165C 21.9055,1158.92 16.5721,1152.75 11.5,1146.5C 9.95186,1146.18 9.28519,1145.18 9.5,1143.5C 9.84316,1141.52 9.17649,1140.18 7.5,1139.5C 7.5,1139.17 7.5,1138.83 7.5,1138.5C 7.84316,1136.52 7.17649,1135.18 5.5,1134.5C 5.5,1133.5 5.5,1132.5 5.5,1131.5C 5.5,1129.83 5.5,1128.17 5.5,1126.5C 4.5,1126.5 3.5,1126.5 2.5,1126.5C 2.5,1123.83 2.5,1121.17 2.5,1118.5C 2.5,1115.5 2.5,1112.5 2.5,1109.5C 1.5,1109.5 0.5,1109.5 -0.5,1109.5C -0.5,765.5 -0.5,421.5 -0.5,77.5C 0.5,77.5 1.5,77.5 2.5,77.5C 2.5,74.5 2.5,71.5 2.5,68.5C 2.5,65.8333 2.5,63.1667 2.5,60.5C 3.5,60.5 4.5,60.5 5.5,60.5C 5.5,58.8333 5.5,57.1667 5.5,55.5C 5.5,54.5 5.5,53.5 5.5,52.5C 7.17649,51.8166 7.84316,50.4832 7.5,48.5C 7.5,48.1667 7.5,47.8333 7.5,47.5C 9.17649,46.8166 9.84316,45.4832 9.5,43.5C 9.28519,41.8212 9.95186,40.8212 11.5,40.5C 15.4413,36.6729 18.9413,32.3396 22,27.5C 28.0835,21.9055 34.2502,16.5721 40.5,11.5C 40.8212,9.95186 41.8212,9.28519 43.5,9.5C 45.4832,9.84316 46.8166,9.17649 47.5,7.5C 47.8333,7.5 48.1667,7.5 48.5,7.5C 50.4832,7.84316 51.8166,7.17649 52.5,5.5C 53.5,5.5 54.5,5.5 55.5,5.5C 57.1667,5.5 58.8333,5.5 60.5,5.5C 60.5,4.5 60.5,3.5 60.5,2.5C 63.1667,2.5 65.8333,2.5 68.5,2.5C 71.5,2.5 74.5,2.5 77.5,2.5C 77.5,1.5 77.5,0.5 77.5,-0.5 Z"/></g>
<g><path style="opacity:0.004" fill="#fefffe" d="M 1223.5,-0.5 C 1226.5,-0.5 1229.5,-0.5 1232.5,-0.5C 1232.5,0.5 1232.5,1.5 1232.5,2.5C 1229.5,2.5 1226.5,2.5 1223.5,2.5C 1223.5,1.5 1223.5,0.5 1223.5,-0.5 Z"/></g>
<g><path style="opacity:0.004" fill="#000000" d="M 1232.5,-0.5 C 1240.83,-0.5 1249.17,-0.5 1257.5,-0.5C 1257.5,0.5 1257.5,1.5 1257.5,2.5C 1259.83,2.5 1262.17,2.5 1264.5,2.5C 1264.5,3.5 1264.5,4.5 1264.5,5.5C 1266.29,5.21478 1267.95,5.54811 1269.5,6.5C 1277.84,13.1629 1285.51,20.4963 1292.5,28.5C 1294.55,30.7961 1295.55,33.4628 1295.5,36.5C 1296.5,36.5 1297.5,36.5 1298.5,36.5C 1298.5,38.8333 1298.5,41.1667 1298.5,43.5C 1299.5,43.5 1300.5,43.5 1301.5,43.5C 1301.5,51.8333 1301.5,60.1667 1301.5,68.5C 1300.5,68.5 1299.5,68.5 1298.5,68.5C 1298.5,65.8333 1298.5,63.1667 1298.5,60.5C 1298.5,58.8333 1298.5,57.1667 1298.5,55.5C 1297.5,55.5 1296.5,55.5 1295.5,55.5C 1295.5,54.5 1295.5,53.5 1295.5,52.5C 1295.84,50.5168 1295.18,49.1834 1293.5,48.5C 1293.5,48.1667 1293.5,47.8333 1293.5,47.5C 1293.84,45.5168 1293.18,44.1834 1291.5,43.5C 1291.71,41.8212 1291.05,40.8212 1289.5,40.5C 1282.83,27.8333 1273.17,18.1667 1260.5,11.5C 1260.18,9.95186 1259.18,9.28519 1257.5,9.5C 1256.82,7.82351 1255.48,7.15684 1253.5,7.5C 1253.17,7.5 1252.83,7.5 1252.5,7.5C 1251.82,5.82351 1250.48,5.15684 1248.5,5.5C 1247.5,5.5 1246.5,5.5 1245.5,5.5C 1245.5,4.5 1245.5,3.5 1245.5,2.5C 1243.83,2.5 1242.17,2.5 1240.5,2.5C 1237.83,2.5 1235.17,2.5 1232.5,2.5C 1232.5,1.5 1232.5,0.5 1232.5,-0.5 Z"/></g>
<g><path style="opacity:0.004" fill="#fefffe" d="M 60.5,2.5 C 60.5,3.5 60.5,4.5 60.5,5.5C 58.8333,5.5 57.1667,5.5 55.5,5.5C 55.5,4.5 55.5,3.5 55.5,2.5C 57.1667,2.5 58.8333,2.5 60.5,2.5 Z"/></g>
<g><path style="opacity:0.012" fill="#545454" d="M 1245.5,1177.5 C 1241.17,1177.5 1236.83,1177.5 1232.5,1177.5C 1248.14,1172.08 1261.97,1163.41 1274,1151.5C 1281.3,1141.43 1286.8,1130.43 1290.5,1118.5C 1291.48,1115.57 1291.82,1112.57 1291.5,1109.5C 1293.46,1102.58 1294.13,1095.24 1293.5,1087.5C 1294.83,923.168 1295.5,758.501 1295.5,593.5C 1295.5,428.499 1294.83,263.832 1293.5,99.5C 1294.13,91.7572 1293.46,84.4238 1291.5,77.5C 1285.17,38.5 1262.5,15.8333 1223.5,9.5C 1216.58,7.53672 1209.24,6.87006 1201.5,7.5C 1018.17,6.16667 834.501,5.5 650.5,5.5C 466.499,5.5 282.832,6.16667 99.5,7.5C 91.7572,6.87006 84.4238,7.53672 77.5,9.5C 38.5,15.8333 15.8333,38.5 9.5,77.5C 7.53672,84.4238 6.87006,91.7572 7.5,99.5C 6.16667,263.832 5.5,428.499 5.5,593.5C 5.5,758.501 6.16667,923.168 7.5,1087.5C 6.87006,1095.24 7.53672,1102.58 9.5,1109.5C 12.6656,1132.67 23.6656,1151.17 42.5,1165C 50.9272,1170.05 59.5938,1174.22 68.5,1177.5C 64.1667,1177.5 59.8333,1177.5 55.5,1177.5C 49.0379,1174.15 42.7046,1170.31 36.5,1166C 16.5335,1149.63 6.20016,1128.47 5.5,1102.5C 4.5,1102.5 3.5,1102.5 2.5,1102.5C 2.5,763.167 2.5,423.833 2.5,84.5C 3.5,84.5 4.5,84.5 5.5,84.5C 5.05431,70.6162 8.22098,57.6162 15,45.5C 30.9445,19.7421 54.1111,6.40874 84.5,5.5C 84.5,4.5 84.5,3.5 84.5,2.5C 461.833,2.5 839.167,2.5 1216.5,2.5C 1216.5,3.5 1216.5,4.5 1216.5,5.5C 1230.38,5.05431 1243.38,8.22098 1255.5,15C 1281.26,30.9445 1294.59,54.1111 1295.5,84.5C 1296.5,84.5 1297.5,84.5 1298.5,84.5C 1298.5,423.833 1298.5,763.167 1298.5,1102.5C 1297.5,1102.5 1296.5,1102.5 1295.5,1102.5C 1295.81,1110.66 1294.81,1118.66 1292.5,1126.5C 1283.86,1150.21 1268.19,1167.21 1245.5,1177.5 Z"/></g>
<g><path style="opacity:0.004" fill="#fefffe" d="M 1240.5,2.5 C 1242.17,2.5 1243.83,2.5 1245.5,2.5C 1245.5,3.5 1245.5,4.5 1245.5,5.5C 1243.83,5.5 1242.17,5.5 1240.5,5.5C 1240.5,4.5 1240.5,3.5 1240.5,2.5 Z"/></g>
<g><path style="opacity:0.004" fill="#fefffe" d="M 52.5,5.5 C 51.8166,7.17649 50.4832,7.84316 48.5,7.5C 49.1834,5.82351 50.5168,5.15684 52.5,5.5 Z"/></g>
<g><path style="opacity:0.016" fill="#7f807f" d="M 1201.5,7.5 C 834.167,7.5 466.833,7.5 99.5,7.5C 282.832,6.16667 466.499,5.5 650.5,5.5C 834.501,5.5 1018.17,6.16667 1201.5,7.5 Z"/></g>
<g><path style="opacity:0.004" fill="#fefffe" d="M 1248.5,5.5 C 1250.48,5.15684 1251.82,5.82351 1252.5,7.5C 1250.52,7.84316 1249.18,7.17649 1248.5,5.5 Z"/></g>
<g><path style="opacity:0.004" fill="#fefffe" d="M 47.5,7.5 C 46.8166,9.17649 45.4832,9.84316 43.5,9.5C 44.1834,7.82351 45.5168,7.15684 47.5,7.5 Z"/></g>
<g><path style="opacity:0.02" fill="#656565" d="M 99.5,7.5 C 466.833,7.5 834.167,7.5 1201.5,7.5C 1209.24,6.87006 1216.58,7.53672 1223.5,9.5C 1262.5,15.8333 1285.17,38.5 1291.5,77.5C 1293.46,84.4238 1294.13,91.7572 1293.5,99.5C 1293.5,428.833 1293.5,758.167 1293.5,1087.5C 1294.13,1095.24 1293.46,1102.58 1291.5,1109.5C 1288.62,1117.3 1285.78,1125.3 1283,1133.5C 1273.87,1151.97 1259.7,1164.8 1240.5,1172C 1234.46,1173.4 1228.79,1175.23 1223.5,1177.5C 1217.83,1177.5 1212.17,1177.5 1206.5,1177.5C 1206.5,1176.83 1206.5,1176.17 1206.5,1175.5C 1257.83,1171.5 1285.5,1143.83 1289.5,1092.5C 1290.83,926.501 1291.5,760.168 1291.5,593.5C 1291.5,426.832 1290.83,260.499 1289.5,94.5C 1285.5,43.1667 1257.83,15.5 1206.5,11.5C 1021.5,10.1667 836.168,9.5 650.5,9.5C 464.832,9.5 279.499,10.1667 94.5,11.5C 43.1667,15.5 15.5,43.1667 11.5,94.5C 10.1667,260.499 9.5,426.832 9.5,593.5C 9.5,760.168 10.1667,926.501 11.5,1092.5C 15.5,1143.83 43.1667,1171.5 94.5,1175.5C 94.5,1176.17 94.5,1176.83 94.5,1177.5C 88.8333,1177.5 83.1667,1177.5 77.5,1177.5C 69.6998,1174.62 61.6998,1171.78 53.5,1169C 35.0331,1159.87 22.1998,1145.7 15,1126.5C 13.5992,1120.46 11.7658,1114.79 9.5,1109.5C 7.53672,1102.58 6.87006,1095.24 7.5,1087.5C 7.5,758.167 7.5,428.833 7.5,99.5C 6.87006,91.7572 7.53672,84.4238 9.5,77.5C 12.3849,69.6998 15.2183,61.6998 18,53.5C 27.1303,35.0331 41.297,22.1998 60.5,15C 66.5449,13.5992 72.2115,11.7658 77.5,9.5C 84.4238,7.53672 91.7572,6.87006 99.5,7.5 Z"/></g>
<g><path style="opacity:0.004" fill="#fefffe" d="M 1253.5,7.5 C 1255.48,7.15684 1256.82,7.82351 1257.5,9.5C 1255.52,9.84316 1254.18,9.17649 1253.5,7.5 Z"/></g>
<g><path style="opacity:0.016" fill="#7f807f" d="M 77.5,9.5 C 72.2115,11.7658 66.5449,13.5992 60.5,15C 41.297,22.1998 27.1303,35.0331 18,53.5C 15.2183,61.6998 12.3849,69.6998 9.5,77.5C 15.8333,38.5 38.5,15.8333 77.5,9.5 Z"/></g>
<g><path style="opacity:0.024" fill="#545554" d="M 1206.5,11.5 C 835.833,11.5 465.167,11.5 94.5,11.5C 279.499,10.1667 464.832,9.5 650.5,9.5C 836.168,9.5 1021.5,10.1667 1206.5,11.5 Z"/></g>
<g><path style="opacity:0.016" fill="#7f807f" d="M 1223.5,9.5 C 1262.5,15.8333 1285.17,38.5 1291.5,77.5C 1288.62,69.6998 1285.78,61.6998 1283,53.5C 1273.87,35.0331 1259.7,22.1998 1240.5,15C 1234.46,13.5992 1228.79,11.7658 1223.5,9.5 Z"/></g>
<g><path style="opacity:0.004" fill="#fefffe" d="M 40.5,11.5 C 34.2502,16.5721 28.0835,21.9055 22,27.5C 18.9413,32.3396 15.4413,36.6729 11.5,40.5C 18.1667,27.8333 27.8333,18.1667 40.5,11.5 Z"/></g>
<g><path style="opacity:0.004" fill="#fefffe" d="M 1260.5,11.5 C 1273.17,18.1667 1282.83,27.8333 1289.5,40.5C 1284.43,34.2502 1279.09,28.0835 1273.5,22C 1268.66,18.9413 1264.33,15.4413 1260.5,11.5 Z"/></g>
<g><path style="opacity:0.004" fill="#fefffe" d="M 9.5,43.5 C 9.84316,45.4832 9.17649,46.8166 7.5,47.5C 7.15684,45.5168 7.82351,44.1834 9.5,43.5 Z"/></g>
<g><path style="opacity:0.004" fill="#fefffe" d="M 1291.5,43.5 C 1293.18,44.1834 1293.84,45.5168 1293.5,47.5C 1291.82,46.8166 1291.16,45.4832 1291.5,43.5 Z"/></g>
<g><path style="opacity:0.004" fill="#fefffe" d="M 7.5,48.5 C 7.84316,50.4832 7.17649,51.8166 5.5,52.5C 5.15684,50.5168 5.82351,49.1834 7.5,48.5 Z"/></g>
<g><path style="opacity:0.004" fill="#fefffe" d="M 1293.5,48.5 C 1295.18,49.1834 1295.84,50.5168 1295.5,52.5C 1293.82,51.8166 1293.16,50.4832 1293.5,48.5 Z"/></g>
<g><path style="opacity:0.004" fill="#fefffe" d="M 5.5,55.5 C 5.5,57.1667 5.5,58.8333 5.5,60.5C 4.5,60.5 3.5,60.5 2.5,60.5C 2.5,58.8333 2.5,57.1667 2.5,55.5C 3.5,55.5 4.5,55.5 5.5,55.5 Z"/></g>
<g><path style="opacity:0.004" fill="#fefffe" d="M 1295.5,55.5 C 1296.5,55.5 1297.5,55.5 1298.5,55.5C 1298.5,57.1667 1298.5,58.8333 1298.5,60.5C 1297.5,60.5 1296.5,60.5 1295.5,60.5C 1295.5,58.8333 1295.5,57.1667 1295.5,55.5 Z"/></g>
<g><path style="opacity:0.004" fill="#fefffe" d="M -0.5,68.5 C 0.5,68.5 1.5,68.5 2.5,68.5C 2.5,71.5 2.5,74.5 2.5,77.5C 1.5,77.5 0.5,77.5 -0.5,77.5C -0.5,74.5 -0.5,71.5 -0.5,68.5 Z"/></g>
<g><path style="opacity:0.004" fill="#fefffe" d="M 1298.5,68.5 C 1299.5,68.5 1300.5,68.5 1301.5,68.5C 1301.5,71.5 1301.5,74.5 1301.5,77.5C 1300.5,77.5 1299.5,77.5 1298.5,77.5C 1298.5,74.5 1298.5,71.5 1298.5,68.5 Z"/></g>
<g><path style="opacity:0.027" fill="#6d6d6d" d="M 94.5,11.5 C 465.167,11.5 835.833,11.5 1206.5,11.5C 1257.83,15.5 1285.5,43.1667 1289.5,94.5C 1289.5,427.167 1289.5,759.833 1289.5,1092.5C 1285.5,1143.83 1257.83,1171.5 1206.5,1175.5C 835.833,1175.5 465.167,1175.5 94.5,1175.5C 43.1667,1171.5 15.5,1143.83 11.5,1092.5C 11.5,759.833 11.5,427.167 11.5,94.5C 15.5,43.1667 43.1667,15.5 94.5,11.5 Z"/></g>
<g><path style="opacity:0.031" fill="#5f5f5f" d="M 99.5,13.5 C 466.833,13.3333 834.167,13.5 1201.5,14C 1256.67,15.8333 1285.17,44.3333 1287,99.5C 1287.67,428.833 1287.67,758.167 1287,1087.5C 1285.17,1142.67 1256.67,1171.17 1201.5,1173C 834.167,1173.67 466.833,1173.67 99.5,1173C 44.3333,1171.17 15.8333,1142.67 14,1087.5C 13.3333,758.167 13.3333,428.833 14,99.5C 16.009,44.3247 44.509,15.658 99.5,13.5 Z"/></g>
<g><path style="opacity:0.216" fill="#646464" d="M 1214.5,20.5 C 1218.75,21.481 1223.08,22.6476 1227.5,24C 1226.83,24.3333 1226.17,24.6667 1225.5,25C 1229.81,25.8661 1230.14,26.8661 1226.5,28C 1227.5,28.3333 1228.5,28.6667 1229.5,29C 1228.3,29.6543 1228.3,30.1543 1229.5,30.5C 1232.46,29.8169 1232.79,28.9836 1230.5,28C 1232.36,27.5779 1234.19,27.0779 1236,26.5C 1258.46,35.1443 1271.46,49.811 1275,70.5C 1274.01,73.1262 1273.67,75.7929 1274,78.5C 1274.56,76.4049 1275.06,76.2382 1275.5,78C 1274.14,80.7296 1273.64,83.5629 1274,86.5C 1274.33,85.8333 1274.67,85.1667 1275,84.5C 1275.33,86.1667 1275.67,87.8333 1276,89.5C 1276.91,86.8792 1277.41,87.0459 1277.5,90C 1275.97,96.4363 1275.47,102.936 1276,109.5C 1276.33,108.833 1276.67,108.167 1277,107.5C 1277.67,431.5 1277.67,755.5 1277,1079.5C 1276.67,1078.83 1276.33,1078.17 1276,1077.5C 1275.47,1084.06 1275.97,1090.56 1277.5,1097C 1277.41,1099.95 1276.91,1100.12 1276,1097.5C 1275.67,1099.17 1275.33,1100.83 1275,1102.5C 1274.24,1099.94 1273.74,1099.94 1273.5,1102.5C 1273.9,1104.2 1274.4,1105.86 1275,1107.5C 1275.91,1103.81 1276.58,1104.15 1277,1108.5C 1278.82,1101.62 1279.82,1094.62 1280,1087.5C 1280.5,1091.82 1280.67,1096.15 1280.5,1100.5C 1280.66,1103.88 1280.33,1107.22 1279.5,1110.5C 1281.73,1113.66 1281.89,1117 1280,1120.5C 1271.26,1145.41 1254.09,1161.08 1228.5,1167.5C 1223.87,1166.45 1219.2,1166.28 1214.5,1167C 1218.17,1167.33 1221.83,1167.67 1225.5,1168C 1221.27,1169.29 1216.94,1169.79 1212.5,1169.5C 1202.49,1169.82 1192.49,1170.32 1182.5,1171C 827.833,1171.67 473.167,1171.67 118.5,1171C 108.505,1170.32 98.5055,1169.82 88.5,1169.5C 84.0638,1169.79 79.7305,1169.29 75.5,1168C 79.1667,1167.67 82.8333,1167.33 86.5,1167C 54.1099,1167.01 32.2766,1151.51 21,1120.5C 19.1073,1117 19.274,1113.66 21.5,1110.5C 20.673,1107.22 20.3396,1103.88 20.5,1100.5C 21.2104,1089.84 21.3771,1079.17 21,1068.5C 20.6667,1074.5 20.3333,1080.5 20,1086.5C 19.3333,757.833 19.3333,429.167 20,100.5C 20.3333,106.5 20.6667,112.5 21,118.5C 21.2423,104.147 20.7423,89.8137 19.5,75.5C 19.7738,69.401 21.4405,63.7344 24.5,58.5C 26.0093,57.1405 26.676,57.6405 26.5,60C 25.2042,62.7336 24.7042,65.567 25,68.5C 26.7429,64.0162 28.7429,59.6829 31,55.5C 31.9836,57.7947 32.8169,57.4614 33.5,54.5C 33.1667,53.8333 32.8333,53.1667 32.5,52.5C 38.2134,41.9059 46.5467,35.0726 57.5,32C 55.6992,31.6827 55.3659,31.016 56.5,30C 59.3904,28.9715 62.2237,27.8048 65,26.5C 66.8114,27.0779 68.6447,27.5779 70.5,28C 68.2053,28.9836 68.5386,29.8169 71.5,30.5C 72.6956,30.1543 72.6956,29.6543 71.5,29C 75.5,28.3333 75.5,27.6667 71.5,27C 72.6226,25.9563 73.9559,25.2896 75.5,25C 74.8333,24.6667 74.1667,24.3333 73.5,24C 81.9451,21.0367 90.6117,20.0367 99.5,21C 92.3777,21.1766 85.3777,22.1766 78.5,24C 82.8518,24.4189 83.1851,25.0855 79.5,26C 81.7538,27.1505 84.0871,27.4838 86.5,27C 85.8333,26.6667 85.1667,26.3333 84.5,26C 86.1667,25.6667 87.8333,25.3333 89.5,25C 86.8792,24.0944 87.0459,23.5944 90,23.5C 96.4363,25.0273 102.936,25.5273 109.5,25C 108.833,24.6667 108.167,24.3333 107.5,24C 469.5,23.3333 831.5,23.3333 1193.5,24C 1192.83,24.3333 1192.17,24.6667 1191.5,25C 1198.06,25.5273 1204.56,25.0273 1211,23.5C 1213.95,23.5944 1214.12,24.0944 1211.5,25C 1213.17,25.3333 1214.83,25.6667 1216.5,26C 1213.94,26.763 1213.94,27.263 1216.5,27.5C 1218.2,27.1012 1219.86,26.6012 1221.5,26C 1217.81,25.0855 1218.15,24.4189 1222.5,24C 1215.62,22.1766 1208.62,21.1766 1201.5,21C 1205.82,20.501 1210.15,20.3343 1214.5,20.5 Z"/></g>
<g><path style="opacity:1" fill="#dddddd" d="M 50.5,66.5 C 52.0861,67.4132 53.5861,67.4132 55,66.5C 55.6914,68.8912 56.6914,68.8912 58,66.5C 59.7287,68.4337 61.7287,68.4337 64,66.5C 71.2816,67.7357 78.9483,67.7357 87,66.5C 87.6914,68.8912 88.6914,68.8912 90,66.5C 91.7287,68.4337 93.7287,68.4337 96,66.5C 103.282,67.7357 110.948,67.7357 119,66.5C 119.691,68.8912 120.691,68.8912 122,66.5C 123.729,68.4337 125.729,68.4337 128,66.5C 135.282,67.7357 142.948,67.7357 151,66.5C 151.691,68.8912 152.691,68.8912 154,66.5C 155.729,68.4337 157.729,68.4337 160,66.5C 167.282,67.7357 174.948,67.7357 183,66.5C 183.691,68.8912 184.691,68.8912 186,66.5C 187.729,68.4337 189.729,68.4337 192,66.5C 538.274,66.5005 884.607,66.5005 1231,66.5C 1231.69,68.8912 1232.69,68.8912 1234,66.5C 1235.73,68.4337 1237.73,68.4337 1240,66.5C 1243.26,66.6396 1246.76,66.6396 1250.5,66.5C 1250.5,72.5 1250.5,78.5 1250.5,84.5C 897.941,84.5048 545.441,84.5048 193,84.5C 191.271,86.4337 189.271,86.4337 187,84.5C 186,85.1667 185,85.8333 184,86.5C 183.29,85.0267 182.124,84.3601 180.5,84.5C 173.599,74.7992 165.932,74.1325 157.5,82.5C 156.5,82.5 155.5,82.5 154.5,82.5C 154.539,84.3588 153.706,85.6921 152,86.5C 151.667,85.8333 151.333,85.1667 151,84.5C 148.108,84.2724 145.441,84.6058 143,85.5C 142.29,84.0267 141.124,83.3601 139.5,83.5C 132.131,74.254 124.798,74.254 117.5,83.5C 115.549,83.2267 114.049,83.8934 113,85.5C 111.883,85.3349 110.716,85.0016 109.5,84.5C 108.459,86.9913 107.626,86.9913 107,84.5C 105.755,84.4615 104.422,84.7948 103,85.5C 101.923,84.5705 100.756,83.9038 99.5,83.5C 92.1311,74.254 84.7978,74.254 77.5,83.5C 76.7354,83.0766 75.9021,82.7432 75,82.5C 73.8643,83.7827 72.531,84.7827 71,85.5C 68.8347,85.5938 66.8347,85.2605 65,84.5C 63.2713,86.4337 61.2713,86.4337 59,84.5C 57.2087,86.5127 55.8753,86.5127 55,84.5C 53.5861,85.4132 52.0861,85.4132 50.5,84.5C 50.5,78.5 50.5,72.5 50.5,66.5 Z"/></g>
<g><path style="opacity:1" fill="#e2e2e2" d="M 59.5,50.5 C 256.166,51.8333 453.166,52.5 650.5,52.5C 847.834,52.5 1044.83,51.8333 1241.5,50.5C 1244.72,50.7759 1247.39,52.1093 1249.5,54.5C 1250.36,58.4338 1250.69,62.4338 1250.5,66.5C 1246.76,66.6396 1243.26,66.6396 1240,66.5C 1237.73,68.4337 1235.73,68.4337 1234,66.5C 1232.69,68.8912 1231.69,68.8912 1231,66.5C 884.607,66.5005 538.274,66.5005 192,66.5C 189.729,68.4337 187.729,68.4337 186,66.5C 184.691,68.8912 183.691,68.8912 183,66.5C 174.948,67.7357 167.282,67.7357 160,66.5C 157.729,68.4337 155.729,68.4337 154,66.5C 152.691,68.8912 151.691,68.8912 151,66.5C 142.948,67.7357 135.282,67.7357 128,66.5C 125.729,68.4337 123.729,68.4337 122,66.5C 120.691,68.8912 119.691,68.8912 119,66.5C 110.948,67.7357 103.282,67.7357 96,66.5C 93.7287,68.4337 91.7287,68.4337 90,66.5C 88.6914,68.8912 87.6914,68.8912 87,66.5C 78.9483,67.7357 71.2816,67.7357 64,66.5C 61.7287,68.4337 59.7287,68.4337 58,66.5C 56.6914,68.8912 55.6914,68.8912 55,66.5C 53.5861,67.4132 52.0861,67.4132 50.5,66.5C 50.307,62.4338 50.6403,58.4338 51.5,54.5C 53.6148,52.1093 56.2814,50.7759 59.5,50.5 Z"/></g>
<g><path style="opacity:1" fill="#eeeeee" d="M 59.5,50.5 C 453.5,50.5 847.5,50.5 1241.5,50.5C 1044.83,51.8333 847.834,52.5 650.5,52.5C 453.166,52.5 256.166,51.8333 59.5,50.5 Z"/></g>
<g><path style="opacity:0.067" fill="#6a6a6a" d="M 1214.5,20.5 C 1210.15,20.3343 1205.82,20.501 1201.5,21C 1208.62,21.1766 1215.62,22.1766 1222.5,24C 1218.15,24.4189 1217.81,25.0855 1221.5,26C 1219.86,26.6012 1218.2,27.1012 1216.5,27.5C 1213.94,27.263 1213.94,26.763 1216.5,26C 1214.83,25.6667 1213.17,25.3333 1211.5,25C 1214.12,24.0944 1213.95,23.5944 1211,23.5C 1204.56,25.0273 1198.06,25.5273 1191.5,25C 1192.17,24.6667 1192.83,24.3333 1193.5,24C 831.5,23.3333 469.5,23.3333 107.5,24C 108.167,24.3333 108.833,24.6667 109.5,25C 102.936,25.5273 96.4363,25.0273 90,23.5C 87.0459,23.5944 86.8792,24.0944 89.5,25C 87.8333,25.3333 86.1667,25.6667 84.5,26C 85.1667,26.3333 85.8333,26.6667 86.5,27C 84.0871,27.4838 81.7538,27.1505 79.5,26C 83.1851,25.0855 82.8518,24.4189 78.5,24C 85.3777,22.1766 92.3777,21.1766 99.5,21C 90.6117,20.0367 81.9451,21.0367 73.5,24C 74.1667,24.3333 74.8333,24.6667 75.5,25C 73.9559,25.2896 72.6226,25.9563 71.5,27C 75.5,27.6667 75.5,28.3333 71.5,29C 72.6956,29.6543 72.6956,30.1543 71.5,30.5C 68.5386,29.8169 68.2053,28.9836 70.5,28C 68.6447,27.5779 66.8114,27.0779 65,26.5C 62.2237,27.8048 59.3904,28.9715 56.5,30C 55.3659,31.016 55.6992,31.6827 57.5,32C 46.5467,35.0726 38.2134,41.9059 32.5,52.5C 32.8333,53.1667 33.1667,53.8333 33.5,54.5C 32.8169,57.4614 31.9836,57.7947 31,55.5C 28.7429,59.6829 26.7429,64.0162 25,68.5C 24.7042,65.567 25.2042,62.7336 26.5,60C 26.676,57.6405 26.0093,57.1405 24.5,58.5C 35.4149,35.7751 53.4149,22.2751 78.5,18C 88.1323,16.6724 97.799,15.6724 107.5,15C 469.5,14.3333 831.5,14.3333 1193.5,15C 1204.26,15.6837 1214.93,17.017 1225.5,19C 1221.64,19.1773 1217.98,19.6773 1214.5,20.5 Z"/></g>
<g><path style="opacity:0.059" fill="#636363" d="M 100.5,20.5 C 467,19.3336 833.666,19.1669 1200.5,20C 1194.5,20.3333 1188.5,20.6667 1182.5,21C 1186.17,21.3333 1189.83,21.6667 1193.5,22C 831.5,22.6667 469.5,22.6667 107.5,22C 111.167,21.6667 114.833,21.3333 118.5,21C 112.509,20.5005 106.509,20.3338 100.5,20.5 Z"/></g>
<g><path style="opacity:1" fill="#fb5f56" d="M 99.5,83.5 C 101.333,96.8319 95.6668,101.999 82.5,99C 77.1071,94.9892 75.4405,89.8226 77.5,83.5C 84.7978,74.254 92.1311,74.254 99.5,83.5 Z"/></g>
<g><path style="opacity:1" fill="#fabc2f" d="M 139.5,83.5 C 141.881,93.2962 138.048,98.9629 128,100.5C 118.503,98.508 115.003,92.8414 117.5,83.5C 124.798,74.254 132.131,74.254 139.5,83.5 Z"/></g>
<g><path style="opacity:1" fill="#29ca40" d="M 180.5,84.5 C 181.226,90.6673 179.226,95.6673 174.5,99.5C 166.075,102.369 160.241,99.7026 157,91.5C 156.366,88.4453 156.532,85.4453 157.5,82.5C 165.932,74.1325 173.599,74.7992 180.5,84.5 Z"/></g>
<g><path style="opacity:1" fill="#d7d7d7" d="M 180.5,84.5 C 182.124,84.3601 183.29,85.0267 184,86.5C 185,85.8333 186,85.1667 187,84.5C 189.271,86.4337 191.271,86.4337 193,84.5C 545.441,84.5048 897.941,84.5048 1250.5,84.5C 1250.5,89.8333 1250.5,95.1667 1250.5,100.5C 892.272,99.5069 534.605,99.1735 177.5,99.5C 176.466,102.125 175.466,102.125 174.5,99.5C 179.226,95.6673 181.226,90.6673 180.5,84.5 Z"/></g>
<g><path style="opacity:0.024" fill="#545554" d="M 11.5,94.5 C 11.5,427.167 11.5,759.833 11.5,1092.5C 10.1667,926.501 9.5,760.168 9.5,593.5C 9.5,426.832 10.1667,260.499 11.5,94.5 Z"/></g>
<g><path style="opacity:0.024" fill="#545554" d="M 1289.5,94.5 C 1290.83,260.499 1291.5,426.832 1291.5,593.5C 1291.5,760.168 1290.83,926.501 1289.5,1092.5C 1289.5,759.833 1289.5,427.167 1289.5,94.5 Z"/></g>
<g><path style="opacity:0.016" fill="#7f807f" d="M 7.5,99.5 C 7.5,428.833 7.5,758.167 7.5,1087.5C 6.16667,923.168 5.5,758.501 5.5,593.5C 5.5,428.499 6.16667,263.832 7.5,99.5 Z"/></g>
<g><path style="opacity:0.016" fill="#7f807f" d="M 1293.5,99.5 C 1294.83,263.832 1295.5,428.499 1295.5,593.5C 1295.5,758.501 1294.83,923.168 1293.5,1087.5C 1293.5,758.167 1293.5,428.833 1293.5,99.5 Z"/></g>
<g><path style="opacity:1" fill="#d2d2d2" d="M 77.5,83.5 C 75.4405,89.8226 77.1071,94.9892 82.5,99C 95.6668,101.999 101.333,96.8319 99.5,83.5C 100.756,83.9038 101.923,84.5705 103,85.5C 104.422,84.7948 105.755,84.4615 107,84.5C 107.626,86.9913 108.459,86.9913 109.5,84.5C 110.716,85.0016 111.883,85.3349 113,85.5C 114.049,83.8934 115.549,83.2267 117.5,83.5C 115.003,92.8414 118.503,98.508 128,100.5C 138.048,98.9629 141.881,93.2962 139.5,83.5C 141.124,83.3601 142.29,84.0267 143,85.5C 145.441,84.6058 148.108,84.2724 151,84.5C 151.333,85.1667 151.667,85.8333 152,86.5C 153.706,85.6921 154.539,84.3588 154.5,82.5C 155.5,82.5 156.5,82.5 157.5,82.5C 156.532,85.4453 156.366,88.4453 157,91.5C 160.241,99.7026 166.075,102.369 174.5,99.5C 175.466,102.125 176.466,102.125 177.5,99.5C 534.605,99.1735 892.272,99.5069 1250.5,100.5C 1250.5,106.167 1250.5,111.833 1250.5,117.5C 897.005,117.18 543.505,117.513 190,118.5C 188.674,118.245 187.674,117.578 187,116.5C 184.791,118.706 182.291,119.04 179.5,117.5C 178.522,117.977 177.689,118.643 177,119.5C 176.333,116.833 175.667,116.833 175,119.5C 174.667,118.833 174.333,118.167 174,117.5C 168.774,117.258 163.441,117.592 158,118.5C 156.674,118.245 155.674,117.578 155,116.5C 152.791,118.706 150.291,119.04 147.5,117.5C 146.522,117.977 145.689,118.643 145,119.5C 144.333,116.833 143.667,116.833 143,119.5C 142.667,118.833 142.333,118.167 142,117.5C 136.774,117.258 131.441,117.592 126,118.5C 124.674,118.245 123.674,117.578 123,116.5C 120.791,118.706 118.291,119.04 115.5,117.5C 114.522,117.977 113.689,118.643 113,119.5C 112.333,116.833 111.667,116.833 111,119.5C 110.667,118.833 110.333,118.167 110,117.5C 104.774,117.258 99.4405,117.592 94,118.5C 92.6739,118.245 91.6739,117.578 91,116.5C 88.791,118.706 86.291,119.04 83.5,117.5C 82.5224,117.977 81.6891,118.643 81,119.5C 80.3333,116.833 79.6667,116.833 79,119.5C 78.6667,118.833 78.3333,118.167 78,117.5C 68.8562,118.224 59.6895,118.224 50.5,117.5C 50.5,106.5 50.5,95.5 50.5,84.5C 52.0861,85.4132 53.5861,85.4132 55,84.5C 55.8753,86.5127 57.2087,86.5127 59,84.5C 61.2713,86.4337 63.2713,86.4337 65,84.5C 66.8347,85.2605 68.8347,85.5938 71,85.5C 72.531,84.7827 73.8643,83.7827 75,82.5C 75.9021,82.7432 76.7354,83.0766 77.5,83.5 Z"/></g>
<g><path style="opacity:0.047" fill="#6e6e6e" d="M 19.5,75.5 C 20.7423,89.8137 21.2423,104.147 21,118.5C 20.6667,112.5 20.3333,106.5 20,100.5C 19.3333,429.167 19.3333,757.833 20,1086.5C 20.3333,1080.5 20.6667,1074.5 21,1068.5C 21.3771,1079.17 21.2104,1089.84 20.5,1100.5C 19.6773,1103.98 19.1773,1107.64 19,1111.5C 17.017,1100.93 15.6837,1090.26 15,1079.5C 14.3333,755.5 14.3333,431.5 15,107.5C 15.6724,97.799 16.6724,88.1323 18,78.5C 18.2321,77.2625 18.7321,76.2625 19.5,75.5 Z"/></g>
<g><path style="opacity:0.039" fill="#656565" d="M 18.5,89.5 C 19.1599,90.964 19.4932,92.6307 19.5,94.5C 18.9053,100.826 18.4053,107.159 18,113.5C 17.8333,273.5 17.6667,433.5 17.5,593.5C 17.35,761.529 17.85,929.529 19,1097.5C 17.1425,1087.93 16.1425,1078.26 16,1068.5C 15.3333,751.833 15.3333,435.167 16,118.5C 16.307,108.776 17.1403,99.1095 18.5,89.5 Z"/></g>
<g><path style="opacity:0.067" fill="#6b6b6b" d="M 1280.5,1100.5 C 1280.67,1096.15 1280.5,1091.82 1280,1087.5C 1279.82,1094.62 1278.82,1101.62 1277,1108.5C 1276.58,1104.15 1275.91,1103.81 1275,1107.5C 1274.4,1105.86 1273.9,1104.2 1273.5,1102.5C 1273.74,1099.94 1274.24,1099.94 1275,1102.5C 1275.33,1100.83 1275.67,1099.17 1276,1097.5C 1276.91,1100.12 1277.41,1099.95 1277.5,1097C 1275.97,1090.56 1275.47,1084.06 1276,1077.5C 1276.33,1078.17 1276.67,1078.83 1277,1079.5C 1277.67,755.5 1277.67,431.5 1277,107.5C 1276.67,108.167 1276.33,108.833 1276,109.5C 1275.47,102.936 1275.97,96.4363 1277.5,90C 1277.41,87.0459 1276.91,86.8792 1276,89.5C 1275.67,87.8333 1275.33,86.1667 1275,84.5C 1274.67,85.1667 1274.33,85.8333 1274,86.5C 1273.64,83.5629 1274.14,80.7296 1275.5,78C 1275.06,76.2382 1274.56,76.4049 1274,78.5C 1273.67,75.7929 1274.01,73.1262 1275,70.5C 1271.46,49.811 1258.46,35.1443 1236,26.5C 1234.19,27.0779 1232.36,27.5779 1230.5,28C 1232.79,28.9836 1232.46,29.8169 1229.5,30.5C 1228.3,30.1543 1228.3,29.6543 1229.5,29C 1228.5,28.6667 1227.5,28.3333 1226.5,28C 1230.14,26.8661 1229.81,25.8661 1225.5,25C 1226.17,24.6667 1226.83,24.3333 1227.5,24C 1223.08,22.6476 1218.75,21.481 1214.5,20.5C 1217.88,20.3396 1221.22,20.673 1224.5,21.5C 1225.83,20.8333 1227.17,20.1667 1228.5,19.5C 1256.5,26.8333 1274.17,44.5 1281.5,72.5C 1280.83,73.8333 1280.17,75.1667 1279.5,76.5C 1280.16,79.8058 1280.66,83.1392 1281,86.5C 1281.33,82.8333 1281.67,79.1667 1282,75.5C 1283.98,86.0688 1285.32,96.7355 1286,107.5C 1286.67,431.5 1286.67,755.5 1286,1079.5C 1285.32,1090.26 1283.98,1100.93 1282,1111.5C 1281.82,1107.64 1281.32,1103.98 1280.5,1100.5 Z"/></g>
<g><path style="opacity:0.039" fill="#656565" d="M 1281.5,89.5 C 1283.85,98.8788 1285.02,108.546 1285,118.5C 1285.67,435.167 1285.67,751.833 1285,1068.5C 1284.86,1078.26 1283.86,1087.93 1282,1097.5C 1283.15,929.529 1283.65,761.529 1283.5,593.5C 1283.33,433.5 1283.17,273.5 1283,113.5C 1282.36,105.505 1281.86,97.5046 1281.5,89.5 Z"/></g>
<g><path style="opacity:0.568" fill="#262626" d="M 51.5,54.5 C 50.6403,58.4338 50.307,62.4338 50.5,66.5C 50.5,72.5 50.5,78.5 50.5,84.5C 50.5,95.5 50.5,106.5 50.5,117.5C 50.5,120.5 50.5,123.5 50.5,126.5C 50.5,457.833 50.5,789.167 50.5,1120.5C 49.8333,943.167 49.5,765.667 49.5,588C 49.6667,410.5 49.8333,233 50,55.5C 50.3826,54.944 50.8826,54.6107 51.5,54.5 Z"/></g>
<g><path style="opacity:0.568" fill="#262626" d="M 1249.5,54.5 C 1250.12,54.6107 1250.62,54.944 1251,55.5C 1251.17,233 1251.33,410.5 1251.5,588C 1251.5,765.667 1251.17,943.167 1250.5,1120.5C 1250.5,789.167 1250.5,457.833 1250.5,126.5C 1250.5,123.5 1250.5,120.5 1250.5,117.5C 1250.5,111.833 1250.5,106.167 1250.5,100.5C 1250.5,95.1667 1250.5,89.8333 1250.5,84.5C 1250.5,78.5 1250.5,72.5 1250.5,66.5C 1250.69,62.4338 1250.36,58.4338 1249.5,54.5 Z"/></g>
<g><path style="opacity:1" fill="#c8c8c8" d="M 1250.5,117.5 C 1250.5,120.5 1250.5,123.5 1250.5,126.5C 850.5,126.5 450.5,126.5 50.5,126.5C 50.5,123.5 50.5,120.5 50.5,117.5C 59.6895,118.224 68.8562,118.224 78,117.5C 78.3333,118.167 78.6667,118.833 79,119.5C 79.6667,116.833 80.3333,116.833 81,119.5C 81.6891,118.643 82.5224,117.977 83.5,117.5C 86.291,119.04 88.791,118.706 91,116.5C 91.6739,117.578 92.6739,118.245 94,118.5C 99.4405,117.592 104.774,117.258 110,117.5C 110.333,118.167 110.667,118.833 111,119.5C 111.667,116.833 112.333,116.833 113,119.5C 113.689,118.643 114.522,117.977 115.5,117.5C 118.291,119.04 120.791,118.706 123,116.5C 123.674,117.578 124.674,118.245 126,118.5C 131.441,117.592 136.774,117.258 142,117.5C 142.333,118.167 142.667,118.833 143,119.5C 143.667,116.833 144.333,116.833 145,119.5C 145.689,118.643 146.522,117.977 147.5,117.5C 150.291,119.04 152.791,118.706 155,116.5C 155.674,117.578 156.674,118.245 158,118.5C 163.441,117.592 168.774,117.258 174,117.5C 174.333,118.167 174.667,118.833 175,119.5C 175.667,116.833 176.333,116.833 177,119.5C 177.689,118.643 178.522,117.977 179.5,117.5C 182.291,119.04 184.791,118.706 187,116.5C 187.674,117.578 188.674,118.245 190,118.5C 543.505,117.513 897.005,117.18 1250.5,117.5 Z"/></g>
<g><path style="opacity:0.059" fill="#636363" d="M 1280.5,100.5 C 1281.67,429 1281.83,757.666 1281,1086.5C 1280.67,1080.5 1280.33,1074.5 1280,1068.5C 1279.67,1072.17 1279.33,1075.83 1279,1079.5C 1278.33,755.5 1278.33,431.5 1279,107.5C 1279.33,111.167 1279.67,114.833 1280,118.5C 1280.5,112.509 1280.67,106.509 1280.5,100.5 Z"/></g>
<g><path style="opacity:1" fill="#c53c2e" d="M 50.5,126.5 C 450.5,126.5 850.5,126.5 1250.5,126.5C 1250.5,457.833 1250.5,789.167 1250.5,1120.5C 1249.02,1122.81 1247.02,1124.64 1244.5,1126C 848.5,1126.67 452.5,1126.67 56.5,1126C 53.9774,1124.64 51.9774,1122.81 50.5,1120.5C 50.5,789.167 50.5,457.833 50.5,126.5 Z"/></g>
<g><path style="opacity:1" fill="#be3a2d" d="M 583.5,686.5 C 637.519,686.053 691.519,686.553 745.5,688C 754.867,691.55 759.7,698.383 760,708.5C 760.667,724.5 760.667,740.5 760,756.5C 756.891,770.6 748.058,777.767 733.5,778C 683.5,778.667 633.5,778.667 583.5,778C 568.942,777.767 560.109,770.6 557,756.5C 556.333,740.5 556.333,724.5 557,708.5C 559.092,692.899 567.925,685.566 583.5,686.5 Z"/></g>
<g><path style="opacity:1" fill="#fefcfc" d="M 747.5,693.5 C 749.226,695.82 749.893,698.487 749.5,701.5C 749.667,720.17 749.5,738.836 749,757.5C 747.955,758.373 747.122,759.373 746.5,760.5C 687.833,760.5 629.167,760.5 570.5,760.5C 569.878,759.373 569.045,758.373 568,757.5C 567.5,738.836 567.333,720.17 567.5,701.5C 567.5,699.5 567.5,697.5 567.5,695.5C 568.627,694.878 569.627,694.045 570.5,693C 629.57,692.171 688.57,692.338 747.5,693.5 Z"/></g>
<g><path style="opacity:1" fill="#b6372b" d="M 747.5,693.5 C 749.371,693.859 750.871,694.859 752,696.5C 753.916,699.898 754.916,703.565 755,707.5C 755.932,725.878 755.599,744.211 754,762.5C 752.833,764.333 751.667,766.167 750.5,768C 746.07,770.088 741.404,771.421 736.5,772C 684.5,772.667 632.5,772.667 580.5,772C 575.316,771.501 570.483,770.001 566,767.5C 563.563,764.624 562.23,761.29 562,757.5C 561.094,738.466 561.427,719.466 563,700.5C 563.837,698.156 565.171,696.156 567,694.5C 567.399,694.728 567.565,695.062 567.5,695.5C 567.5,697.5 567.5,699.5 567.5,701.5C 566.698,702.952 566.198,704.618 566,706.5C 565.333,723.5 565.333,740.5 566,757.5C 566.624,763.788 570.124,766.955 576.5,767C 631.167,767.667 685.833,767.667 740.5,767C 746.876,766.955 750.376,763.788 751,757.5C 751.667,740.5 751.667,723.5 751,706.5C 750.802,704.618 750.302,702.952 749.5,701.5C 749.893,698.487 749.226,695.82 747.5,693.5 Z"/></g>
<g><path style="opacity:1" fill="#a93428" d="M 567.5,701.5 C 567.333,720.17 567.5,738.836 568,757.5C 569.045,758.373 569.878,759.373 570.5,760.5C 570.756,762.776 572.09,763.943 574.5,764C 578.167,764.333 581.833,764.667 585.5,765C 634.167,765.667 682.833,765.667 731.5,765C 736.21,764.625 740.877,763.958 745.5,763C 746.252,762.329 746.586,761.496 746.5,760.5C 747.122,759.373 747.955,758.373 749,757.5C 749.5,738.836 749.667,720.17 749.5,701.5C 750.302,702.952 750.802,704.618 751,706.5C 751.667,723.5 751.667,740.5 751,757.5C 750.376,763.788 746.876,766.955 740.5,767C 685.833,767.667 631.167,767.667 576.5,767C 570.124,766.955 566.624,763.788 566,757.5C 565.333,740.5 565.333,723.5 566,706.5C 566.198,704.618 566.698,702.952 567.5,701.5 Z"/></g>
<g><path style="opacity:1" fill="#9a2f24" d="M 570.5,760.5 C 629.167,760.5 687.833,760.5 746.5,760.5C 746.586,761.496 746.252,762.329 745.5,763C 740.877,763.958 736.21,764.625 731.5,765C 682.833,765.667 634.167,765.667 585.5,765C 581.833,764.667 578.167,764.333 574.5,764C 572.09,763.943 570.756,762.776 570.5,760.5 Z"/></g>
<g><path style="opacity:1" fill="#cf5138" d="M 686.5,720.5 C 688.25,723.355 689.083,726.689 689,730.5C 690.523,732.62 692.356,732.953 694.5,731.5C 695.489,727.893 695.823,724.226 695.5,720.5C 696.5,720.5 697.5,720.5 698.5,720.5C 698.5,725.167 698.5,729.833 698.5,734.5C 696.136,733.471 693.803,733.471 691.5,734.5C 689.813,734.24 688.313,733.573 687,732.5C 686.501,728.514 686.334,724.514 686.5,720.5 Z"/></g>
<g><path style="opacity:1" fill="#ce5246" d="M 670.5,717.5 C 679.564,716.733 683.73,720.733 683,729.5C 681.833,730.667 680.667,731.833 679.5,733C 680.833,734.333 682.167,735.667 683.5,737C 679.551,735.275 675.218,734.275 670.5,734C 663.881,728.471 663.881,722.971 670.5,717.5 Z"/></g>
<g><path style="opacity:1" fill="#cc4835" d="M 708.5,720.5 C 711.5,720.5 714.5,720.5 717.5,720.5C 716.405,724.611 714.405,728.278 711.5,731.5C 713.5,732.167 715.5,732.833 717.5,733.5C 714.572,734.484 711.572,734.817 708.5,734.5C 709.283,730.103 711.283,726.27 714.5,723C 711.949,722.998 709.949,722.164 708.5,720.5 Z"/></g>
<g><path style="opacity:1" fill="#cc4b40" d="M 602.5,717.5 C 605.272,717.22 607.772,717.887 610,719.5C 610.591,720.483 610.257,721.15 609,721.5C 607.418,719.971 605.585,719.471 603.5,720C 602.167,721.333 602.167,722.667 603.5,724C 605.392,724.973 607.392,725.64 609.5,726C 612.626,730.934 611.126,733.767 605,734.5C 601.485,734.516 599.651,732.85 599.5,729.5C 602.336,730.776 605.336,731.442 608.5,731.5C 608.67,730.178 608.337,729.011 607.5,728C 604.692,727.402 602.192,726.235 600,724.5C 598.916,721.341 599.75,719.008 602.5,717.5 Z"/></g>
<g><path style="opacity:1" fill="#cc4542" d="M 702.5,720.5 C 703.5,720.5 704.5,720.5 705.5,720.5C 705.5,725.167 705.5,729.833 705.5,734.5C 704.5,734.5 703.5,734.5 702.5,734.5C 702.5,729.833 702.5,725.167 702.5,720.5 Z"/></g>
<g><path style="opacity:1" fill="#fbf6f6" d="M 670.5,720.5 C 677.587,718.923 680.753,721.59 680,728.5C 676.61,732.032 672.943,732.366 669,729.5C 668.068,726.177 668.568,723.177 670.5,720.5 Z"/></g>
<g><path style="opacity:1" fill="#d35b3b" d="M 640.5,720.5 C 642.124,720.36 643.29,721.027 644,722.5C 646.178,719.532 647.344,719.865 647.5,723.5C 646.178,723.33 645.011,723.663 644,724.5C 643.502,727.817 643.335,731.15 643.5,734.5C 642.5,734.5 641.5,734.5 640.5,734.5C 640.5,729.833 640.5,725.167 640.5,720.5 Z"/></g>
<g><path style="opacity:1" fill="#cc493d" d="M 627.5,720.5 C 629.936,720.317 632.103,720.984 634,722.5C 634.71,721.027 635.876,720.36 637.5,720.5C 637.5,725.167 637.5,729.833 637.5,734.5C 634.991,733.325 632.491,733.325 630,734.5C 624.144,733.131 622.144,729.464 624,723.5C 625.145,722.364 626.312,721.364 627.5,720.5 Z"/></g>
<g><path style="opacity:1" fill="#fbf2ee" d="M 627.5,723.5 C 634.676,722.985 636.342,725.818 632.5,732C 630.299,732.825 628.466,732.325 627,730.5C 626.297,728.071 626.463,725.738 627.5,723.5 Z"/></g>
<g><path style="opacity:1" fill="#cb4944" d="M 651.5,717.5 C 653.048,717.821 653.715,718.821 653.5,720.5C 654.978,720.238 656.311,720.571 657.5,721.5C 656.675,722.386 655.675,722.719 654.5,722.5C 654.5,725.833 654.5,729.167 654.5,732.5C 657.988,732.899 658.154,733.566 655,734.5C 653.893,734.415 652.893,734.081 652,733.5C 652.003,729.258 651.17,725.258 649.5,721.5C 650.853,720.476 651.52,719.143 651.5,717.5 Z"/></g>
<g><path style="opacity:1" fill="#cb4944" d="M 615.5,717.5 C 617.048,717.821 617.715,718.821 617.5,720.5C 618.978,720.238 620.311,720.571 621.5,721.5C 620.675,722.386 619.675,722.719 618.5,722.5C 618.5,725.833 618.5,729.167 618.5,732.5C 621.988,732.899 622.154,733.566 619,734.5C 617.893,734.415 616.893,734.081 616,733.5C 616.003,729.258 615.17,725.258 613.5,721.5C 614.853,720.476 615.52,719.143 615.5,717.5 Z"/></g>
<g><path style="opacity:1" fill="#d1574a" d="M 702.5,714.5 C 703.5,714.5 704.5,714.5 705.5,714.5C 705.778,716.346 705.111,717.68 703.5,718.5C 702.571,717.311 702.238,715.978 702.5,714.5 Z"/></g>
<g><path style="opacity:0.004" fill="#fefffe" d="M -0.5,1109.5 C 0.5,1109.5 1.5,1109.5 2.5,1109.5C 2.5,1112.5 2.5,1115.5 2.5,1118.5C 1.5,1118.5 0.5,1118.5 -0.5,1118.5C -0.5,1115.5 -0.5,1112.5 -0.5,1109.5 Z"/></g>
<g><path style="opacity:0.016" fill="#7f807f" d="M 9.5,1109.5 C 11.7658,1114.79 13.5992,1120.46 15,1126.5C 22.1998,1145.7 35.0331,1159.87 53.5,1169C 61.6998,1171.78 69.6998,1174.62 77.5,1177.5C 74.5,1177.5 71.5,1177.5 68.5,1177.5C 59.5938,1174.22 50.9272,1170.05 42.5,1165C 23.6656,1151.17 12.6656,1132.67 9.5,1109.5 Z"/></g>
<g><path style="opacity:0.016" fill="#7f807f" d="M 1291.5,1109.5 C 1291.82,1112.57 1291.48,1115.57 1290.5,1118.5C 1286.8,1130.43 1281.3,1141.43 1274,1151.5C 1261.97,1163.41 1248.14,1172.08 1232.5,1177.5C 1229.5,1177.5 1226.5,1177.5 1223.5,1177.5C 1228.79,1175.23 1234.46,1173.4 1240.5,1172C 1259.7,1164.8 1273.87,1151.97 1283,1133.5C 1285.78,1125.3 1288.62,1117.3 1291.5,1109.5 Z"/></g>
<g><path style="opacity:0.004" fill="#fefffe" d="M 1301.5,1109.5 C 1301.5,1112.5 1301.5,1115.5 1301.5,1118.5C 1300.5,1118.5 1299.5,1118.5 1298.5,1118.5C 1298.5,1115.5 1298.5,1112.5 1298.5,1109.5C 1299.5,1109.5 1300.5,1109.5 1301.5,1109.5 Z"/></g>
<g><path style="opacity:0.004" fill="#000000" d="M -0.5,1118.5 C 0.5,1118.5 1.5,1118.5 2.5,1118.5C 2.5,1121.17 2.5,1123.83 2.5,1126.5C 2.5,1128.17 2.5,1129.83 2.5,1131.5C 3.5,1131.5 4.5,1131.5 5.5,1131.5C 5.5,1132.5 5.5,1133.5 5.5,1134.5C 5.15684,1136.48 5.82351,1137.82 7.5,1138.5C 7.5,1138.83 7.5,1139.17 7.5,1139.5C 7.15684,1141.48 7.82351,1142.82 9.5,1143.5C 9.28519,1145.18 9.95186,1146.18 11.5,1146.5C 18.1667,1159.17 27.8333,1168.83 40.5,1175.5C 40.5,1176.17 40.5,1176.83 40.5,1177.5C 35.8333,1177.5 31.1667,1177.5 26.5,1177.5C 20.301,1171.51 14.301,1165.17 8.5,1158.5C 6.44772,1156.2 5.44772,1153.54 5.5,1150.5C 4.5,1150.5 3.5,1150.5 2.5,1150.5C 2.5,1148.17 2.5,1145.83 2.5,1143.5C 1.5,1143.5 0.5,1143.5 -0.5,1143.5C -0.5,1135.17 -0.5,1126.83 -0.5,1118.5 Z"/></g>
<g><path style="opacity:0.004" fill="#000000" d="M 1298.5,1118.5 C 1299.5,1118.5 1300.5,1118.5 1301.5,1118.5C 1301.5,1126.83 1301.5,1135.17 1301.5,1143.5C 1300.5,1143.5 1299.5,1143.5 1298.5,1143.5C 1298.5,1145.83 1298.5,1148.17 1298.5,1150.5C 1297.5,1150.5 1296.5,1150.5 1295.5,1150.5C 1295.55,1153.54 1294.55,1156.2 1292.5,1158.5C 1286.7,1165.17 1280.7,1171.51 1274.5,1177.5C 1269.83,1177.5 1265.17,1177.5 1260.5,1177.5C 1260.5,1176.83 1260.5,1176.17 1260.5,1175.5C 1273.17,1168.83 1282.83,1159.17 1289.5,1146.5C 1291.05,1146.18 1291.71,1145.18 1291.5,1143.5C 1293.18,1142.82 1293.84,1141.48 1293.5,1139.5C 1293.5,1139.17 1293.5,1138.83 1293.5,1138.5C 1295.18,1137.82 1295.84,1136.48 1295.5,1134.5C 1295.5,1133.5 1295.5,1132.5 1295.5,1131.5C 1296.5,1131.5 1297.5,1131.5 1298.5,1131.5C 1298.5,1129.83 1298.5,1128.17 1298.5,1126.5C 1298.5,1123.83 1298.5,1121.17 1298.5,1118.5 Z"/></g>
<g><path style="opacity:0.004" fill="#fefffe" d="M 2.5,1126.5 C 3.5,1126.5 4.5,1126.5 5.5,1126.5C 5.5,1128.17 5.5,1129.83 5.5,1131.5C 4.5,1131.5 3.5,1131.5 2.5,1131.5C 2.5,1129.83 2.5,1128.17 2.5,1126.5 Z"/></g>
<g><path style="opacity:0.004" fill="#fefffe" d="M 1298.5,1126.5 C 1298.5,1128.17 1298.5,1129.83 1298.5,1131.5C 1297.5,1131.5 1296.5,1131.5 1295.5,1131.5C 1295.5,1129.83 1295.5,1128.17 1295.5,1126.5C 1296.5,1126.5 1297.5,1126.5 1298.5,1126.5 Z"/></g>
<g><path style="opacity:0.004" fill="#fefffe" d="M 5.5,1134.5 C 7.17649,1135.18 7.84316,1136.52 7.5,1138.5C 5.82351,1137.82 5.15684,1136.48 5.5,1134.5 Z"/></g>
<g><path style="opacity:0.004" fill="#fefffe" d="M 1295.5,1134.5 C 1295.84,1136.48 1295.18,1137.82 1293.5,1138.5C 1293.16,1136.52 1293.82,1135.18 1295.5,1134.5 Z"/></g>
<g><path style="opacity:0.004" fill="#fefffe" d="M 7.5,1139.5 C 9.17649,1140.18 9.84316,1141.52 9.5,1143.5C 7.82351,1142.82 7.15684,1141.48 7.5,1139.5 Z"/></g>
<g><path style="opacity:0.004" fill="#fefffe" d="M 1293.5,1139.5 C 1293.84,1141.48 1293.18,1142.82 1291.5,1143.5C 1291.16,1141.52 1291.82,1140.18 1293.5,1139.5 Z"/></g>
<g><path style="opacity:0.004" fill="#fefffe" d="M 11.5,1146.5 C 16.5721,1152.75 21.9055,1158.92 27.5,1165C 32.3396,1168.06 36.6729,1171.56 40.5,1175.5C 27.8333,1168.83 18.1667,1159.17 11.5,1146.5 Z"/></g>
<g><path style="opacity:0.004" fill="#fefffe" d="M 1289.5,1146.5 C 1282.83,1159.17 1273.17,1168.83 1260.5,1175.5C 1266.75,1170.43 1272.92,1165.09 1279,1159.5C 1282.06,1154.66 1285.56,1150.33 1289.5,1146.5 Z"/></g>
<g><path style="opacity:0.035" fill="#707170" d="M 88.5,1169.5 C 98.5055,1169.82 108.505,1170.32 118.5,1171C 473.167,1171.67 827.833,1171.67 1182.5,1171C 1192.49,1170.32 1202.49,1169.82 1212.5,1169.5C 1206.4,1171.02 1200.07,1171.85 1193.5,1172C 831.5,1172.67 469.5,1172.67 107.5,1172C 100.932,1171.85 94.599,1171.02 88.5,1169.5 Z"/></g>
<g><path style="opacity:0.024" fill="#545554" d="M 94.5,1175.5 C 465.167,1175.5 835.833,1175.5 1206.5,1175.5C 1206.5,1176.17 1206.5,1176.83 1206.5,1177.5C 835.833,1177.5 465.167,1177.5 94.5,1177.5C 94.5,1176.83 94.5,1176.17 94.5,1175.5 Z"/></g>
</svg>
